<svg xmlns="http://www.w3.org/2000/svg" viewBox="0 0 340.12 174.74"><defs><style>.cls-1{fill:#020202;}.cls-2,.cls-3,.cls-4,.cls-6,.cls-7,.cls-8{fill:none;}.cls-2,.cls-3,.cls-6{stroke:#020202;}.cls-2,.cls-3,.cls-4,.cls-7,.cls-8{stroke-linecap:round;}.cls-2,.cls-3,.cls-4,.cls-7{stroke-linejoin:round;}.cls-2,.cls-7,.cls-8{stroke-width:5px;}.cls-3{stroke-width:2px;}.cls-4{stroke:#637b8b;}.cls-4,.cls-6{stroke-width:3px;}.cls-5{fill:#637b8b;}.cls-6,.cls-8{stroke-miterlimit:10;}.cls-7,.cls-8{stroke:#bc7259;}</style></defs><title>IT Services</title><g id="Layer_2" data-name="Layer 2"><g id="Business_Icon" data-name="Business Icon"><rect class="cls-1" x="84.06" y="168.74" width="184" height="6" rx="3"/><rect class="cls-1" x="133.56" y="14.24" width="76" height="5" rx="2.5"/><rect class="cls-1" x="204.56" y="49.24" width="51" height="5" rx="2.5"/><rect class="cls-1" x="92.56" y="47.24" width="46" height="5" rx="2.5"/><line class="cls-2" x1="139.06" y1="19.24" x2="139.06" y2="168.74"/><line class="cls-2" x1="204.56" y1="19.24" x2="204.56" y2="168.74"/><line class="cls-2" x1="248.964" y1="54.24" x2="248.964" y2="168.74"/><line class="cls-2" x1="97.305" y1="52.24" x2="97.305" y2="168.74"/><polyline class="cls-3" points="222.56 68.979 222.56 72.24 212.56 72.24 212.56 69.077"/><polyline class="cls-3" points="233.114 62.24 240.56 62.24 240.56 72.24 230.56 72.24 230.56 65.36"/><rect class="cls-3" x="212.56" y="79.24" width="10" height="10"/><rect class="cls-3" x="230.56" y="79.24" width="10" height="10"/><rect class="cls-3" x="212.56" y="96.24" width="10" height="10"/><rect class="cls-3" x="230.56" y="96.24" width="10" height="10"/><rect class="cls-3" x="212.56" y="113.24" width="10" height="10"/><rect class="cls-3" x="230.56" y="113.24" width="10" height="10"/><rect class="cls-3" x="212.56" y="131.24" width="10" height="10"/><rect class="cls-3" x="230.56" y="131.24" width="10" height="10"/><rect class="cls-3" x="212.56" y="148.24" width="10" height="10"/><rect class="cls-3" x="230.56" y="148.24" width="10" height="10"/><rect class="cls-3" x="104.56" y="62.24" width="10" height="10"/><rect class="cls-3" x="122.56" y="62.24" width="10" height="10"/><rect class="cls-3" x="104.56" y="79.24" width="10" height="10"/><rect class="cls-3" x="122.56" y="79.24" width="10" height="10"/><polyline class="cls-3" points="104.56 104.294 104.56 96.24 112.544 96.24"/><polyline class="cls-3" points="114.56 105.224 114.56 106.24 113.767 106.24"/><polyline class="cls-3" points="132.56 101.24 132.56 106.24 122.56 106.24 122.56 101.24"/><rect class="cls-3" x="104.56" y="113.24" width="10" height="10"/><rect class="cls-3" x="122.56" y="113.24" width="10" height="10"/><rect class="cls-3" x="104.56" y="131.24" width="10" height="10"/><rect class="cls-3" x="122.56" y="131.24" width="10" height="10"/><rect class="cls-3" x="104.56" y="148.24" width="10" height="10"/><rect class="cls-3" x="122.56" y="148.24" width="10" height="10"/><rect class="cls-3" x="150.56" y="34.24" width="15" height="15"/><rect class="cls-3" x="150.56" y="58.24" width="15" height="15"/><polyline class="cls-3" points="178.56 71.11 178.56 58.24 193.56 58.24 193.56 60.566"/><polyline class="cls-3" points="193.56 68.979 193.56 73.24 188.017 73.24"/><rect class="cls-3" x="178.56" y="34.24" width="15" height="15"/><polyline class="cls-3" points="150.56 92.531 150.56 80.24 165.56 80.24 165.56 83.917"/><rect class="cls-3" x="150.56" y="104.24" width="15" height="15"/><rect class="cls-3" x="178.56" y="104.24" width="15" height="15"/><polyline class="cls-3" points="181.071 80.24 193.56 80.24 193.56 95.24 178.56 95.24 178.56 83.066"/><rect class="cls-3" x="150.56" y="124.24" width="15" height="15"/><rect class="cls-3" x="150.56" y="148.24" width="15" height="15"/><rect class="cls-3" x="178.56" y="148.24" width="15" height="15"/><rect class="cls-3" x="178.56" y="124.24" width="15" height="15"/><polyline class="cls-4" points="282.736 103.267 288 103.267 304 87.267 326 87.267"/><polyline class="cls-4" points="291.229 118.122 306 118.122 314.073 126.194 337 126.194"/><polyline class="cls-4" points="280.69 141.941 292 141.941 308.163 158.104 324 158.104"/><polyline class="cls-4" points="58 23.853 41.207 7.06 3 7.06"/><polyline class="cls-4" points="53.659 40.332 48 40.332 31.533 56.8 12 56.8"/><polyline class="cls-4" points="66 64.267 43 64.267 31 76.267 3 76.267"/><circle class="cls-5" cx="324.06" cy="158.327" r="3.06"/><circle class="cls-5" cx="3.06" cy="76.327" r="3.06"/><circle class="cls-5" cx="12.06" cy="56.327" r="3.06"/><circle class="cls-5" cx="3.06" cy="7.327" r="3.06"/><circle class="cls-5" cx="337.06" cy="126.327" r="3.06"/><circle class="cls-5" cx="329.06" cy="87.327" r="3.06"/><path class="cls-6" d="M250.746,165.153l6.692-.1A2.02,2.02,0,0,0,259.43,163l-.069-5.551a2.089,2.089,0,0,1,1.463-2,32.461,32.461,0,0,0,5.5-2.379,2.064,2.064,0,0,1,2.444.308l3.99,3.872a2.035,2.035,0,0,0,2.869-.043l8.478-8.736a2.036,2.036,0,0,0-.043-2.869l-3.99-3.872a2.083,2.083,0,0,1-.367-2.448,32.186,32.186,0,0,0,2.2-5.557,2.12,2.12,0,0,1,1.972-1.536l5.537-.083a2.02,2.02,0,0,0,1.992-2.053l-.182-12.164a2.022,2.022,0,0,0-2.053-1.993l-5.552.069a2.053,2.053,0,0,1-1.988-1.477,32.861,32.861,0,0,0-2.377-5.474,2.1,2.1,0,0,1,.307-2.472l3.858-3.975a2.036,2.036,0,0,0-.043-2.869l-8.736-8.478a2.035,2.035,0,0,0-2.869.043l-3.858,3.975a2.126,2.126,0,0,1-2.462.381,32.113,32.113,0,0,0-5.543-2.212,2.083,2.083,0,0,1-1.55-1.957l-.083-5.538a2.021,2.021,0,0,0-2.053-1.992L250.749,84m-.059,22.116a18.667,18.667,0,0,1,10.951,3.306,18.9,18.9,0,0,1,.462,30.844,18.7,18.7,0,0,1-11.357,3.634"/><path class="cls-6" d="M124.4,49.24a29.339,29.339,0,0,0,.587-2.934,2.066,2.066,0,0,1,1.7-1.741l5.34-.8a1.97,1.97,0,0,0,1.658-2.243l-1.761-11.732a1.97,1.97,0,0,0-2.243-1.658l-5.356.79a2,2,0,0,1-2.114-1.168,31.981,31.981,0,0,0-3.011-4.98,2.05,2.05,0,0,1-.025-2.43L122.39,16a1.984,1.984,0,0,0-.415-2.767l-9.547-7.055a1.984,1.984,0,0,0-2.767.415l-3.21,4.344a2.072,2.072,0,0,1-2.329.689,31.438,31.438,0,0,0-5.645-1.416A2.032,2.032,0,0,1,96.724,8.52l-.8-5.34a1.97,1.97,0,0,0-2.243-1.658L81.947,3.283a1.971,1.971,0,0,0-1.658,2.244l.8,5.34A2.032,2.032,0,0,1,79.911,13a31.4,31.4,0,0,0-4.98,3.011,2.073,2.073,0,0,1-2.43.025l-4.343-3.21a1.985,1.985,0,0,0-2.767.416l-7.055,9.546a1.984,1.984,0,0,0,.415,2.767l4.344,3.21a2.054,2.054,0,0,1,.7,2.314,31.6,31.6,0,0,0-1.428,5.661,2,2,0,0,1-1.677,1.737l-5.352.817a1.971,1.971,0,0,0-1.658,2.244l1.761,11.731a1.97,1.97,0,0,0,2.244,1.658l5.34-.8a2.065,2.065,0,0,1,2.141,1.163,33.087,33.087,0,0,0,3,5A2.029,2.029,0,0,1,68.2,62.7l-3.222,4.36a1.985,1.985,0,0,0,.416,2.767l9.546,7.054a1.984,1.984,0,0,0,2.767-.415l3.222-4.36a2.008,2.008,0,0,1,2.318-.673,33.842,33.842,0,0,0,5.656,1.4,2.036,2.036,0,0,1,1.726,1.694l.817,5.351a1.97,1.97,0,0,0,2.244,1.658l3.612-.542m0-20.958a18.241,18.241,0,0,1-11.624-1.666,18.417,18.417,0,1,1,25.182-23.743m0,0a18.434,18.434,0,0,1-.241,15.12"/><polyline class="cls-7" points="262.934 38.318 262.934 25.413 248.856 25.413"/><polyline class="cls-8" points="39.06 128.74 86.06 128.74 117.56 97.24 158.06 97.24 190.31 64.99 223.56 64.99 261.685 26.865"/></g></g></svg>