<svg xmlns="http://www.w3.org/2000/svg" viewBox="0 0 346.169 325.046"><defs><style>.cls-1,.cls-2,.cls-3,.cls-5,.cls-6{fill:none;stroke-linecap:round;stroke-linejoin:round;}.cls-1,.cls-2{stroke:#141018;}.cls-1,.cls-3{stroke-width:8px;}.cls-2,.cls-5{stroke-width:5px;}.cls-3{stroke:#130f17;}.cls-4{fill:#120e16;}.cls-5{stroke:#120e16;}.cls-6{stroke:#637b8b;stroke-width:3px;}</style></defs><title>MS SQL, Mysql</title><g id="Layer_2" data-name="Layer 2"><g id="Microsoft_Icon" data-name="Microsoft Icon"><path class="cls-1" d="M338.091,223.164H326.916a4.185,4.185,0,0,1-3.956-3.018,64.835,64.835,0,0,0-4.609-11.093,4.258,4.258,0,0,1,.694-4.975l7.871-7.872a4.062,4.062,0,0,0,0-5.75l-17.292-17.293a4.063,4.063,0,0,0-5.751,0l-7.912,7.871a4.127,4.127,0,0,1-4.935.654,66.009,66.009,0,0,0-11.093-4.569,4.221,4.221,0,0,1-3.018-4V161.989a4.09,4.09,0,0,0-4.078-4.079H248.366a4.09,4.09,0,0,0-4.078,4.079v11.134a4.271,4.271,0,0,1-3.018,4,64.661,64.661,0,0,0-11.093,4.569,4.188,4.188,0,0,1-4.976-.654l-7.871-7.871a4.063,4.063,0,0,0-5.751,0l-17.292,17.293a4.06,4.06,0,0,0,0,5.75l7.871,7.872a4.188,4.188,0,0,1,.653,4.975,64.77,64.77,0,0,0-4.568,11.093,4.273,4.273,0,0,1-4,3.018H183.112a4.091,4.091,0,0,0-4.078,4.079v24.47a4.09,4.09,0,0,0,4.078,4.078h11.134a4.235,4.235,0,0,1,4,2.978,65.146,65.146,0,0,0,4.568,11.133,4.128,4.128,0,0,1-.653,4.935l-3.249,3.266-4.622,4.646a4.061,4.061,0,0,0,0,5.751l17.292,17.292a4.061,4.061,0,0,0,5.751,0l7.871-7.871a4.26,4.26,0,0,1,4.976-.694,68.265,68.265,0,0,0,11.093,4.61,4.183,4.183,0,0,1,3.018,3.955v11.175a4.091,4.091,0,0,0,4.078,4.079h24.471a4.091,4.091,0,0,0,4.078-4.079V305.792a4.135,4.135,0,0,1,3.018-3.955,69.778,69.778,0,0,0,11.093-4.61,4.2,4.2,0,0,1,4.935.694l7.912,7.871a4.061,4.061,0,0,0,5.751,0L326.916,288.5a4.063,4.063,0,0,0,0-5.751l-7.871-7.912a4.2,4.2,0,0,1-.694-4.935,65.21,65.21,0,0,0,4.609-11.133,4.148,4.148,0,0,1,3.956-2.978h11.175a4.09,4.09,0,0,0,4.078-4.078v-24.47A4.091,4.091,0,0,0,338.091,223.164Z"/><ellipse class="cls-2" cx="260.933" cy="239.187" rx="45.66" ry="46.039" transform="translate(-92.705 254.564) rotate(-45)"/><path class="cls-1" d="M264.927,49.607a4.211,4.211,0,0,1-.04.708c-.547,12.935-16.437,24.534-41.579,32.692-3.016.992-6.194,1.923-9.473,2.814a249.324,249.324,0,0,1-26.093,5.445h-.04a346.232,346.232,0,0,1-53.238,3.968,345.823,345.823,0,0,1-53.643-4.029H80.78A245.771,245.771,0,0,1,54.687,85.7q-4.706-1.275-9.048-2.692C21.712,75.254,6.146,64.343,4.2,52.177a15.612,15.612,0,0,1-.2-2.57C4,24.425,62.4,4,134.464,4S264.927,24.425,264.927,49.607Z"/><path class="cls-3" d="M4.2,113.857v5.121a16.329,16.329,0,0,1,0-5.121Z"/><path class="cls-3" d="M4.2,180.657v5.122a16.335,16.335,0,0,1,0-5.122Z"/><path class="cls-1" d="M265.545,115.79c0,13.218-16.65,25.7-42.237,34.018h-.02c-3.016.991-6.174,1.923-9.453,2.813a249.06,249.06,0,0,1-26.093,5.446h-.04a346.236,346.236,0,0,1-53.238,3.967,345.828,345.828,0,0,1-53.643-4.028H80.78A245.771,245.771,0,0,1,54.687,152.5q-4.706-1.275-9.048-2.692C21.712,142.055,6.146,131.144,4.2,118.978v-66.8c1.944,12.166,17.51,23.077,41.437,30.83q4.342,1.426,9.048,2.692A245.771,245.771,0,0,0,80.78,91.205h.041a345.823,345.823,0,0,0,53.643,4.029A346.232,346.232,0,0,0,187.7,91.266h.04a249.324,249.324,0,0,0,26.093-5.445c3.279-.891,6.457-1.822,9.473-2.814"/><path class="cls-1" d="M181.258,225.564c-16.255,2.55-27.827,3.271-46.794,3.271a345.7,345.7,0,0,1-53.643-4.029H80.78A245.274,245.274,0,0,1,54.687,219.3c-4.23-1.153-8.279-2.388-12.064-3.7C20.4,207.924,6.065,197.438,4.2,185.779v-66.8c1.944,12.166,17.51,23.077,41.437,30.83q4.342,1.426,9.048,2.692a245.771,245.771,0,0,0,26.093,5.506h.041a345.828,345.828,0,0,0,53.643,4.028,346.236,346.236,0,0,0,53.238-3.967h.04a249.06,249.06,0,0,0,26.093-5.446c3.279-.89,6.437-1.822,9.453-2.813h.02"/><path class="cls-1" d="M194.76,287.92c-3.209.622-3.644,1.2-7.018,1.724h-.04a346.236,346.236,0,0,1-53.238,3.967,345.828,345.828,0,0,1-53.643-4.028H80.78a245.771,245.771,0,0,1-26.093-5.506C23.858,275.757,4,262.68,4,247.984a15.543,15.543,0,0,1,.2-2.55V185.779C6.065,197.438,20.4,207.924,42.623,215.6c3.785,1.316,7.834,2.551,12.064,3.7a245.274,245.274,0,0,0,26.093,5.506h.041a345.7,345.7,0,0,0,53.643,4.029,335.354,335.354,0,0,0,45.261-2.976"/><line class="cls-3" x1="265.332" y1="109.505" x2="265.332" y2="155.66"/><line class="cls-3" x1="265.332" y1="49.789" x2="265.332" y2="120.638"/><circle class="cls-4" cx="241.787" cy="96.907" r="3.494"/><circle class="cls-4" cx="251.186" cy="92.901" r="3.494"/><path class="cls-5" d="M17.265,88.238c23.163,16.334,49.982,21.091,78.327,23.838"/><path class="cls-5" d="M18.968,156.252C42.131,172.586,68.949,177.343,97.3,180.09"/><path class="cls-5" d="M18.068,222.659C41.231,238.994,68.05,243.75,96.4,246.5"/><path class="cls-6" d="M261.288,216.576a22.61,22.61,0,0,1,16.61,37.95"/><path class="cls-6" d="M261.288,261.8A22.61,22.61,0,0,1,245.7,222.813"/><polyline class="cls-6" points="266.94 211.09 261.078 216.953 266.94 222.815"/><polyline class="cls-6" points="255.635 267.282 261.497 261.419 255.635 255.557"/></g></g></svg>