<svg xmlns="http://www.w3.org/2000/svg" viewBox="0 0 346.83 280"><defs><style>.cls-1{fill:#423741;}.cls-2,.cls-3,.cls-4,.cls-5{fill:none;stroke-linejoin:round;}.cls-2{stroke:#130f17;stroke-width:8px;}.cls-2,.cls-3,.cls-5{stroke-linecap:round;}.cls-3,.cls-4,.cls-5{stroke:#423741;}.cls-3{stroke-width:3px;}.cls-4,.cls-5{stroke-width:5px;}</style></defs><title>Dental Imaging_2</title><g id="Layer_2" data-name="Layer 2"><g id="Dental_Imaging_Icon" data-name="Dental Imaging Icon"><path class="cls-1" d="M172.931,151.462a8.374,8.374,0,0,0-8.641-.227c-2.939,1.686-4.747,5.169-6,8.192a55.759,55.759,0,0,0-2.955,10.267h27.136c.067-.014-1.531-5.959-1.661-6.423C179.558,158.812,177.067,153.877,172.931,151.462Z"/><path class="cls-1" d="M135.457,169.67c-.99-5.8.161-11.611-.129-17.44-.132-2.661-.172-5.342-.513-7.989a37.5,37.5,0,0,0-2.1-8.029c-1.936-5.3-4.489-10.4-6.778-15.56-1-2.26-2.153-4.38-3.291-6.571-1.1-2.121-2.16-4.481-1.983-6.928a3.315,3.315,0,0,1,.064-.411H9.11A9.111,9.111,0,0,0,0,115.853v44.731a9.11,9.11,0,0,0,9.11,9.11H135.465C135.463,169.686,135.459,169.678,135.457,169.67Z"/><path class="cls-1" d="M126.321,106.742a2.247,2.247,0,0,1,.022.411c-.146,2.013,1.117,3.928,2.066,5.638,1.19,2.146,2.149,4.368,3.153,6.606,2.338,5.215,4.893,10.4,6.806,15.793a50.642,50.642,0,0,1,2.462,16.741c.028,5.369-.805,10.905.1,16.228a3.607,3.607,0,0,1-.065,1.535h8.806a3.354,3.354,0,0,1,.047-.9c1.151-5.779,2.743-11.811,6.229-16.719,3.7-5.208,9.953-9.191,16.528-7.274a12.977,12.977,0,0,1,2.843,1.222c6.1,3.51,9.812,10.647,11.54,17.228.161.613,1.245,6.446,1.332,6.446h11.2a2.2,2.2,0,0,1,.115-.93,22.358,22.358,0,0,0,.912-8.2c-.042-2.695-.016-5.382.007-8.077a46.033,46.033,0,0,1,.668-8.437c1.281-6.573,5.02-12.311,8.613-17.836a72.788,72.788,0,0,0,8.2-18.709,3.011,3.011,0,0,1,.356-.762Z"/><path class="cls-1" d="M337.719,106.742H223.074a2.541,2.541,0,0,1,.32,2.272,93.9,93.9,0,0,1-5.957,15.173,78.238,78.238,0,0,1-4.066,7.236c-1.409,2.2-3.158,4.2-4.3,6.568a31.7,31.7,0,0,0-2.493,7.569,43.772,43.772,0,0,0-.473,7.986c-.024,2.7,0,5.4.014,8.1a26.2,26.2,0,0,1-.938,8.047H337.719a9.111,9.111,0,0,0,9.111-9.11V115.853A9.111,9.111,0,0,0,337.719,106.742Z"/><path class="cls-2" d="M50.181,4H296.649a12.766,12.766,0,0,1,12.766,12.766v244.7A14.532,14.532,0,0,1,294.883,276H50.181a12.766,12.766,0,0,1-12.766-12.766V16.766A12.766,12.766,0,0,1,50.181,4Z"/><path class="cls-3" d="M154.739,85.476a27.344,27.344,0,0,0,36.164-.335"/><path class="cls-4" d="M185.879,169.694a61.733,61.733,0,0,1,1.555,13.414c.028,4.639,6.052,6.511,8.509,2.577a48.161,48.161,0,0,0,6.373-15.99"/><path class="cls-4" d="M138.647,169.694q.032.617.07,1.231a48.708,48.708,0,0,0,3.35,15.424c1.941,4.659,8.869,3.392,8.914-1.655a77.7,77.7,0,0,1,1.6-15"/><path class="cls-4" d="M220.922,106.743q.488-2.086.793-4.217c1.4-9.87-.806-20.66-7.735-27.828-5.2-5.383-13.969-8.538-21.357-6.421-7.972,2.284-11.252,9.76-21.06,8.231-6.077-.947-11.31-4.8-17.242-6.429a25.736,25.736,0,0,0-22.965,5.25,28.239,28.239,0,0,0-9.7,21.648,35.241,35.241,0,0,0,1.591,9.765"/><polyline class="cls-5" points="283.284 205.921 283.284 248.681 240.524 248.681"/><polyline class="cls-5" points="283.284 70.515 283.284 27.755 240.524 27.755"/><polyline class="cls-5" points="62.358 205.921 62.358 248.681 105.118 248.681"/><polyline class="cls-5" points="62.358 70.515 62.358 27.755 105.118 27.755"/></g></g></svg>