<svg xmlns="http://www.w3.org/2000/svg" viewBox="0 0 325.424 255.821"><defs><style>.cls-1,.cls-3{fill:none;stroke-linecap:round;stroke-linejoin:round;}.cls-1{stroke:#130f17;stroke-width:8px;}.cls-2{fill:#423841;}.cls-3{stroke:#627b8b;stroke-width:3px;}.cls-4{fill:#627b8b;}</style></defs><title>HyperV</title><g id="Layer_2" data-name="Layer 2"><g id="Hyper_V_Icon" data-name="Hyper V Icon"><polyline class="cls-1" points="102.603 123.821 102.603 154.821 212.603 154.821 233.603 125.821 233.603 97.821"/><polygon class="cls-1" points="103.103 123.321 212.103 123.321 233.103 97.821 133.103 97.821 103.103 123.321"/><line class="cls-1" x1="212.103" y1="123.321" x2="212.103" y2="154.321"/><polyline class="cls-1" points="103.603 172.821 103.603 203.821 213.603 203.821 234.603 174.821 234.603 142.821"/><polyline class="cls-1" points="119.103 155.321 104.103 172.321 213.103 172.321 234.103 142.321 224.561 142.321"/><line class="cls-1" x1="213.103" y1="172.321" x2="213.103" y2="203.321"/><polyline class="cls-1" points="105.603 220.821 105.603 251.821 215.603 251.821 236.603 222.821 236.603 190.821"/><polyline class="cls-1" points="120.05 204.268 106.103 220.321 215.103 220.321 236.103 190.321 227.029 190.321"/><line class="cls-1" x1="215.103" y1="220.321" x2="215.103" y2="251.321"/><circle class="cls-2" cx="197.242" cy="135.544" r="2.052"/><circle class="cls-2" cx="203.242" cy="135.544" r="2.052"/><circle class="cls-2" cx="196.242" cy="183.544" r="2.052"/><circle class="cls-2" cx="202.242" cy="183.544" r="2.052"/><circle class="cls-2" cx="196.242" cy="231.544" r="2.052"/><circle class="cls-2" cx="202.242" cy="231.544" r="2.052"/><polyline class="cls-3" points="222.778 54.599 222.778 46.984 209.221 33.427 209.221 12.256"/><polyline class="cls-3" points="261.453 71.845 261.453 37.579 269.756 29.276 269.756 3.06"/><polyline class="cls-3" points="246.776 126.581 246.776 145.495 262.842 161.561 262.842 239.408"/><polyline class="cls-3" points="74.277 71.845 42.973 71.845 29.654 58.526 3.06 58.526"/><polyline class="cls-3" points="265.605 104.828 282.451 104.828 293.002 115.379 322.364 115.379"/><polyline class="cls-3" points="84.649 121.765 68.118 121.765 54.246 135.637 24.19 135.637"/><circle class="cls-4" cx="262.842" cy="239.408" r="3.06"/><circle class="cls-4" cx="322.364" cy="115.379" r="3.06"/><circle class="cls-4" cx="269.756" cy="3.06" r="3.06"/><circle class="cls-4" cx="209.221" cy="12.256" r="3.06"/><circle class="cls-4" cx="3.06" cy="58.526" r="3.06"/><circle class="cls-4" cx="24.19" cy="135.637" r="3.06"/><path class="cls-1" d="M102.6,127.6a41.6,41.6,0,1,1,21.346-80.4,33.76,33.76,0,0,1-.816-7.4,34.239,34.239,0,0,1,68.477,0v.057c.422-.042.858-.057,1.294-.057a18.056,18.056,0,0,1,18.055,18.055v.169a37.479,37.479,0,0,1,53.6,33.8,37.009,37.009,0,0,1-34.04,36.848"/><rect class="cls-2" x="109.603" y="133.821" width="40" height="4" rx="0.83"/><rect class="cls-2" x="109.603" y="181.821" width="40" height="4" rx="1.511"/><rect class="cls-2" x="111.603" y="229.821" width="40" height="4" rx="1.585"/></g></g></svg>