<svg xmlns="http://www.w3.org/2000/svg" viewBox="0 0 343.12 230.851"><defs><style>.cls-1,.cls-3,.cls-5{fill:none;}.cls-1,.cls-2{stroke:#423741;stroke-width:5px;}.cls-1,.cls-2,.cls-3,.cls-5{stroke-linecap:round;stroke-linejoin:round;}.cls-2,.cls-4{fill:#423841;}.cls-3{stroke:#130f17;stroke-width:8px;}.cls-5{stroke:#637b8b;stroke-width:3px;}.cls-6{fill:#637b8b;}</style></defs><title>Notion Consulting</title><g id="Layer_2" data-name="Layer 2"><g id="Notion_Icon" data-name="Notion Icon"><path class="cls-1" d="M233.966,155.743h0a8.7,8.7,0,0,0-8.7,8.675v21.964a20.252,20.252,0,0,1-20.252,20.251H185.491"/><circle class="cls-2" cx="185.229" cy="206.946" r="2.79"/><rect class="cls-3" x="112.65" y="105" width="121.851" height="121.851" rx="14.556"/><path class="cls-3" d="M230.273,104.8V67.475c0-16.579-11.627-32.115-30.819-39.754a72.9,72.9,0,0,0-26.9-5.016A70.674,70.674,0,0,0,137.9,31.421c-14.778,8.35-23.106,21.838-23.106,35.912V105.32"/><path class="cls-3" d="M91.105,104.07V66.937c0-19.847,11.745-38.869,32.585-50.644C137.366,8.566,154.266,4,172.558,4a102.775,102.775,0,0,1,37.94,7.075c27.066,10.773,43.463,32.683,43.463,56.063v37.716"/><path class="cls-4" d="M209.977,130.436h0a4.276,4.276,0,0,1-4.276,4.275l-3.456,1.244v61.57l-7.282,2.089a13.183,13.183,0,0,1-14.908-5.708l-.074-.122-27.294-45.758v46.255l8.837,1.277h0a5.006,5.006,0,0,1-5.006,5.006H133.911a5.006,5.006,0,0,1,5.006-5.006l3.276-1.277v-58.4l-8.282-1.175h0a4.275,4.275,0,0,1,4.276-4.275h23.337l30.783,53.014V135.955l-8.282-1.244h0a4.276,4.276,0,0,1,4.276-4.275Z"/><polyline class="cls-5" points="277 124.5 294 124.5 310 108.5 332 108.5"/><polyline class="cls-5" points="277 139.355 309 139.355 317.073 147.427 340 147.427"/><polyline class="cls-5" points="277 163.174 295 163.174 311.163 179.337 327 179.337"/><polyline class="cls-5" points="69.412 120.086 58 120.086 41.207 103.293 3 103.293"/><polyline class="cls-5" points="68.908 136.565 48 136.565 31.533 153.033 12 153.033"/><polyline class="cls-5" points="66 160.5 43 160.5 31 172.5 3 172.5"/><circle class="cls-6" cx="327.06" cy="179.56" r="3.06"/><circle class="cls-6" cx="3.06" cy="172.56" r="3.06"/><circle class="cls-6" cx="12.06" cy="152.56" r="3.06"/><circle class="cls-6" cx="3.06" cy="103.56" r="3.06"/><circle class="cls-6" cx="340.06" cy="147.56" r="3.06"/><circle class="cls-6" cx="332.06" cy="108.56" r="3.06"/><path class="cls-3" d="M231.8,105.762h23.655c11.948,0,21.634,8.905,21.634,19.888v44.588c0,10.984-9.686,19.888-21.634,19.888h-17.7"/><path class="cls-3" d="M114.766,104.242H90.814c-12.1,0-21.906,9.016-21.906,20.138v45.147c0,11.122,9.807,20.138,21.906,20.138h17.918"/></g></g></svg>