<svg xmlns="http://www.w3.org/2000/svg" viewBox="0 0 353.729 236.89"><defs><style>.cls-1,.cls-3,.cls-4,.cls-5,.cls-7{fill:none;stroke-linecap:round;stroke-linejoin:round;}.cls-1{stroke:#627b8b;}.cls-1,.cls-5,.cls-7{stroke-width:3px;}.cls-2{fill:#637b8b;}.cls-3,.cls-4,.cls-5{stroke:#141018;}.cls-3{stroke-width:8px;}.cls-4{stroke-width:5px;}.cls-6{fill:#130f17;}.cls-7{stroke:#637b8b;}.cls-8{fill:#423841;}</style></defs><title>Web Development</title><g id="Layer_2" data-name="Layer 2"><g id="Web_Dev_Icon" data-name="Web Dev Icon"><polyline class="cls-1" points="190.234 219.809 204.256 233.831 320.538 233.831"/><polyline class="cls-1" points="307.843 168.809 317.799 168.809 327.777 178.787 350.669 178.787"/><polyline class="cls-1" points="307.843 64.331 318.549 64.331 331.603 51.276 339.962 51.276"/><polyline class="cls-1" points="207.843 27.154 196.043 15.354 114.712 15.354 102.418 3.06 37.756 3.06"/><polyline class="cls-1" points="48.191 57.804 38.408 57.804 29.231 66.98 3.06 66.98"/><polyline class="cls-1" points="48.191 147.679 25.887 147.679 16.495 138.287 9.582 138.287"/><circle class="cls-2" cx="320.538" cy="233.831" r="3.06"/><circle class="cls-2" cx="350.669" cy="178.787" r="3.06"/><circle class="cls-2" cx="9.582" cy="138.287" r="3.06"/><circle class="cls-2" cx="37.756" cy="3.06" r="3.06"/><circle class="cls-2" cx="339.962" cy="51.276" r="3.06"/><circle class="cls-2" cx="3.06" cy="66.98" r="3.06"/><rect class="cls-3" x="48.191" y="27.154" width="259.651" height="159.655" rx="14.283"/><path class="cls-3" d="M271.582,219.809H84.452l3.761-9.159a14.254,14.254,0,0,1,13.186-8.841h153.41a14.256,14.256,0,0,1,13.275,9.06Z"/><polygon class="cls-3" points="225.408 201.809 130.626 201.809 134.369 186.809 221.84 186.809 225.408 201.809"/><line class="cls-4" x1="48.191" y1="158.331" x2="307.843" y2="158.331"/><circle class="cls-5" cx="280.799" cy="171.766" r="6.087"/><circle class="cls-6" cx="65.696" cy="171.766" r="3.06"/><circle class="cls-6" cx="76.816" cy="171.766" r="3.06"/><circle class="cls-6" cx="87.936" cy="171.766" r="3.06"/><polyline class="cls-7" points="185.348 65.559 202.348 65.559 218.348 49.559 240.348 49.559"/><polyline class="cls-7" points="209.348 91.414 241.348 91.414 249.421 99.486 272.348 99.486"/><polyline class="cls-7" points="201.864 119.233 223.348 119.233 239.511 135.396 255.348 135.396"/><polyline class="cls-7" points="159.76 72.146 148.869 72.146 132.842 56.119 96.38 56.119"/><polyline class="cls-7" points="152.256 92.624 131.348 92.624 114.88 109.092 95.348 109.092"/><polyline class="cls-7" points="174.348 126.559 151.348 126.559 139.348 138.559 111.348 138.559"/><circle class="cls-2" cx="255.408" cy="135.619" r="3.06"/><circle class="cls-2" cx="111.408" cy="138.619" r="3.06"/><circle class="cls-2" cx="95.408" cy="108.619" r="3.06"/><circle class="cls-2" cx="93.408" cy="55.619" r="3.06"/><circle class="cls-2" cx="272.408" cy="99.619" r="3.06"/><circle class="cls-2" cx="240.408" cy="49.619" r="3.06"/><path class="cls-8" d="M212.084,89.883h-4.6a1.723,1.723,0,0,1-1.628-1.242,26.577,26.577,0,0,0-1.9-4.566,1.754,1.754,0,0,1,.286-2.048l3.239-3.24a1.67,1.67,0,0,0,0-2.366L200.367,69.3a1.673,1.673,0,0,0-2.367,0l-3.256,3.24a1.7,1.7,0,0,1-2.031.269,27.087,27.087,0,0,0-4.566-1.88,1.737,1.737,0,0,1-1.242-1.645V64.7a1.685,1.685,0,0,0-1.679-1.679H175.155a1.684,1.684,0,0,0-1.679,1.679v4.583a1.759,1.759,0,0,1-1.242,1.645,26.518,26.518,0,0,0-4.566,1.88,1.725,1.725,0,0,1-2.048-.269l-3.239-3.24a1.673,1.673,0,0,0-2.367,0L152.9,76.421a1.672,1.672,0,0,0,0,2.366l3.24,3.24a1.725,1.725,0,0,1,.269,2.048,26.518,26.518,0,0,0-1.88,4.566,1.76,1.76,0,0,1-1.645,1.242H148.3a1.684,1.684,0,0,0-1.679,1.679v10.071a1.685,1.685,0,0,0,1.679,1.679h4.583a1.743,1.743,0,0,1,1.645,1.225,26.691,26.691,0,0,0,1.88,4.583,1.7,1.7,0,0,1-.269,2.031l-3.24,3.256a1.673,1.673,0,0,0,0,2.367l7.118,7.117a1.671,1.671,0,0,0,2.367,0l3.239-3.239a1.754,1.754,0,0,1,2.048-.286,28,28,0,0,0,4.566,1.9,1.722,1.722,0,0,1,1.242,1.628v4.6a1.683,1.683,0,0,0,1.679,1.678h10.071a1.684,1.684,0,0,0,1.679-1.678v-4.6a1.7,1.7,0,0,1,1.242-1.628,28.641,28.641,0,0,0,4.566-1.9,1.728,1.728,0,0,1,2.031.286L198,123.891a1.671,1.671,0,0,0,2.367,0l7.117-7.117a1.671,1.671,0,0,0,0-2.367l-3.239-3.256a1.728,1.728,0,0,1-.286-2.031,26.75,26.75,0,0,0,1.9-4.583,1.706,1.706,0,0,1,1.628-1.225h4.6a1.684,1.684,0,0,0,1.678-1.679V91.562A1.683,1.683,0,0,0,212.084,89.883Zm-17,9.266a15.116,15.116,0,1,1-17.458-17.458A15.089,15.089,0,0,1,195.08,99.149Z"/></g></g></svg>