<svg xmlns="http://www.w3.org/2000/svg" viewBox="0 0 348.224 238.393"><defs><style>.cls-1,.cls-4,.cls-5{fill:none;}.cls-1{stroke:#627b8b;stroke-width:2px;}.cls-1,.cls-3,.cls-4,.cls-5{stroke-linecap:round;stroke-linejoin:round;}.cls-2{fill:#637b8b;}.cls-3{fill:#627b8b;stroke:#637b8b;stroke-width:3px;}.cls-4{stroke:#bb7159;stroke-width:5px;}.cls-5{stroke:#130f17;stroke-width:8px;}</style></defs><title>Power BI Analytics</title><g id="Layer_2" data-name="Layer 2"><g id="Layer_2-2" data-name="Layer 2"><polyline class="cls-1" points="264.469 180.053 285.902 180.053 297.473 191.624 321.833 191.624"/><polyline class="cls-1" points="256.337 153.197 289.779 153.197 305.453 137.523 344.83 137.523"/><polyline class="cls-1" points="103.813 24.21 73.305 24.21 62.326 13.231 31.163 13.231"/><polyline class="cls-1" points="85.971 82.769 58.499 82.769 44.647 96.622 3.393 96.622"/><circle class="cls-2" cx="344.83" cy="137.523" r="3.393"/><circle class="cls-2" cx="31.163" cy="13.231" r="3.393"/><circle class="cls-2" cx="3.393" cy="96.622" r="3.393"/><circle class="cls-2" cx="321.833" cy="191.624" r="3.393"/><path class="cls-3" d="M182.945,69.446h22.716a1.436,1.436,0,0,1,1.436,1.436V119.2a0,0,0,0,1,0,0H181.36a0,0,0,0,1,0,0V71.031A1.585,1.585,0,0,1,182.945,69.446Z"/><rect class="cls-3" x="217.696" y="56.341" width="25.737" height="62.855" rx="1.234"/><rect class="cls-3" x="253.283" y="42.638" width="25.737" height="76.559" rx="1.564"/><line class="cls-4" x1="182.917" y1="55.221" x2="277.677" y2="10.03"/><path class="cls-5" d="M170.685,4l-17.552.042a5.777,5.777,0,0,0-5.745,5.773l.038,15.721a6.035,6.035,0,0,1-4.248,5.654,91.306,91.306,0,0,0-15.649,6.488,5.912,5.912,0,0,1-7.027-.906L109.36,25.685a5.735,5.735,0,0,0-8.12.019L76.882,50.18A5.735,5.735,0,0,0,76.9,58.3L88.042,69.388a5.913,5.913,0,0,1,.939,7.023,91.332,91.332,0,0,0-6.413,15.68,6.036,6.036,0,0,1-5.633,4.275L61.213,96.4a5.777,5.777,0,0,0-5.745,5.773l.083,34.552a5.775,5.775,0,0,0,5.773,5.745l15.721-.037a5.981,5.981,0,0,1,5.654,4.19,91.932,91.932,0,0,0,6.487,15.706,5.826,5.826,0,0,1-.905,6.97L77.194,180.5a5.735,5.735,0,0,0,.019,8.12l24.476,24.359a5.734,5.734,0,0,0,8.12-.02L120.9,201.82a6.012,6.012,0,0,1,7.023-1,96.438,96.438,0,0,0,15.68,6.471,5.908,5.908,0,0,1,4.274,5.575l.038,15.779a5.775,5.775,0,0,0,5.773,5.745l34.552-.082a5.775,5.775,0,0,0,5.745-5.773l-.037-15.779a5.839,5.839,0,0,1,4.248-5.6,98.561,98.561,0,0,0,15.648-6.546,5.926,5.926,0,0,1,6.97.964l11.2,11.087a5.735,5.735,0,0,0,8.12-.02l24.359-24.475a5.735,5.735,0,0,0-.02-8.12l-11.141-11.146a5.928,5.928,0,0,1-1-6.966A92,92,0,0,0,258.8,146.2a5.858,5.858,0,0,1,5.576-4.217l15.779-.038a5.774,5.774,0,0,0,5.745-5.772l-.04-17m-63.849,1.9a52.775,52.775,0,0,1-.674,9.4,50.6,50.6,0,1,1-58.576-58.3,52.974,52.974,0,0,1,7.922-.718"/><line class="cls-5" x1="171.018" y1="4" x2="171.018" y2="119.529"/><line class="cls-5" x1="171.189" y1="119.529" x2="285.902" y2="119.529"/><polyline class="cls-4" points="259.639 3.33 278.406 9.782 271.881 28.76"/></g></g></svg>