<svg xmlns="http://www.w3.org/2000/svg" viewBox="0 0 217.352 310.766"><defs><style>.cls-1,.cls-2,.cls-3,.cls-4{fill:none;stroke-linecap:round;stroke-linejoin:round;}.cls-1{stroke:#bc7259;}.cls-1,.cls-4{stroke-width:5px;}.cls-2,.cls-3{stroke:#130f17;}.cls-2{stroke-width:8px;}.cls-3{stroke-width:15px;}.cls-4{stroke:#423741;}</style></defs><title>Medical IT</title><g id="Layer_2" data-name="Layer 2"><g id="Medical_Icon" data-name="Medical Icon"><polyline class="cls-1" points="2.5 82.483 57.501 82.483 63.181 95.01 76.481 48.233 97.396 121.623 117.581 72.832 127.171 90.703 214.852 90.703"/><path class="cls-2" d="M70.735,21.126C64.817,15.857,45.228-.668,32.68,5.27c-15.7,7.426-11.4,45.753-4.757,68.182,10.212,34.461,40.233,79.48,72.939,76.11,15.911-1.639,26.152-14.08,38.055-28.541C171.5,81.443,188.7,20.206,170.63,6.855c-6.12-4.522-18.524-5.2-45.984,11.1"/><circle class="cls-3" cx="102.101" cy="287.253" r="2.296"/><circle class="cls-4" cx="102.101" cy="287.253" r="21.013"/><path class="cls-2" d="M98.386,150.48v.261a27,27,0,0,1-27,27H41a27,27,0,0,0-27,27h0a27,27,0,0,0,27,27H163a27,27,0,0,1,27,27v2a27,27,0,0,1-27,27H102"/></g></g></svg>