<svg xmlns="http://www.w3.org/2000/svg" viewBox="0 0 350.927 337.304"><defs><style>.cls-1,.cls-3,.cls-4,.cls-5,.cls-7{fill:none;stroke-linecap:round;}.cls-1{stroke:#627b8b;}.cls-1,.cls-3,.cls-4,.cls-7{stroke-linejoin:round;}.cls-1,.cls-7{stroke-width:3px;}.cls-2{fill:#627b8b;}.cls-3,.cls-4,.cls-7{stroke:#130f17;}.cls-3,.cls-5{stroke-width:5px;}.cls-4{stroke-width:8px;}.cls-5{stroke:#bc7259;stroke-miterlimit:10;}.cls-6{fill:#bc7259;}</style></defs><title>Security Audits</title><g id="Layer_2" data-name="Layer 2"><g id="Security_Icons" data-name="Security Icons"><polyline class="cls-1" points="121.752 55.858 121.752 44.3 109.687 32.234 109.687 3.044"/><polyline class="cls-1" points="225.152 55.858 225.152 37.294 230.923 31.524 230.923 20.428"/><polyline class="cls-1" points="276.88 109.427 293.394 109.427 307.665 95.156 327.904 95.156"/><polyline class="cls-1" points="64.31 132.259 48.711 132.259 39.501 123.049 3.044 123.049"/><polyline class="cls-1" points="81.089 205.006 63.409 205.006 50.527 217.887 20.688 217.887"/><polyline class="cls-1" points="144.786 271.512 144.786 286.647 135.41 296.024 135.41 333.872"/><polyline class="cls-1" points="194.097 274.96 194.097 305.848 201.192 312.943 201.192 321.676"/><polyline class="cls-1" points="304.934 172.503 315.239 182.809 347.883 182.809"/><polyline class="cls-1" points="234.818 245.322 234.818 255.097 243.712 263.992 243.712 290.525"/><circle class="cls-2" cx="243.712" cy="290.525" r="2.947"/><circle class="cls-2" cx="243.73" cy="290.28" r="3.044"/><circle class="cls-2" cx="347.883" cy="182.809" r="3.044"/><circle class="cls-2" cx="327.904" cy="95.156" r="3.044"/><circle class="cls-2" cx="230.923" cy="20.428" r="3.044"/><circle class="cls-2" cx="109.687" cy="3.044" r="3.044"/><circle class="cls-2" cx="3.044" cy="123.049" r="3.044"/><circle class="cls-2" cx="20.688" cy="217.887" r="3.044"/><circle class="cls-2" cx="201.192" cy="322.195" r="3.044"/><circle class="cls-2" cx="135.41" cy="334.261" r="3.044"/><path class="cls-3" d="M250.969,124.493a250.626,250.626,0,0,0-1.483-32.69c-48.861,0-79.711-37.64-79.711-37.64S136.863,91.8,90.063,91.8c0,0-19.311,136.028,79.712,158.123,32.015-7.147,51.134-26.718,63.058-49.237"/><path class="cls-4" d="M256.671,209.733c-15.15,32.44-41.57,61.161-86.9,71.274C37.783,251.563,66.071,70.248,66.071,70.248c74,0,103.7-55.016,103.7-55.016s29.7,55.016,103.7,55.016a323.929,323.929,0,0,1,2.215,55.69"/><path class="cls-5" d="M135.465,201.438a8.286,8.286,0,0,0,5.931,2.489h58.832a8.514,8.514,0,0,0,8.514-8.514v-41.04"/><path class="cls-5" d="M125.745,141.526v-5.048a5.353,5.353,0,0,1,5.353-5.353h79.531a5.456,5.456,0,0,1,5.455,5.455v5.579a5.528,5.528,0,0,1-5.527,5.527H133.086v47.931a8.283,8.283,0,0,0,2.379,5.821"/><path class="cls-5" d="M179.535,105a16.817,16.817,0,0,1,8.2,14.451v4.475"/><path class="cls-5" d="M154.09,123.925V119.45A16.829,16.829,0,0,1,179.535,105"/><path class="cls-5" d="M199.475,123.925V119.45a28.561,28.561,0,1,0-57.121,0v4.475"/><path class="cls-6" d="M181.925,165.222a9.789,9.789,0,0,1-4.956,8.509,2.486,2.486,0,0,0-1.227,2.17v12.166a2.912,2.912,0,0,1-2.912,2.912H171a3,3,0,0,1-3-3V175.588a2.615,2.615,0,0,0-1.221-2.176,9.789,9.789,0,1,1,15.151-8.19Z"/><path class="cls-7" d="M284.33,141.163a32,32,0,1,1-39.008-4.893A32.026,32.026,0,0,1,284.33,141.163Z"/><path class="cls-3" d="M307.109,163.822a46.089,46.089,0,0,1-.778,8.456c-1.756.458-3.725.9-5.943,1.3a39.494,39.494,0,0,1-4.414,10.67c1.318,1.908,2.431,3.653,3.366,5.253q-.635.927-1.323,1.827a46.276,46.276,0,0,1-8.807,8.81q-.9.689-1.827,1.323c-1.6-.935-3.344-2.051-5.253-3.37a39.586,39.586,0,0,1-10.666,4.414h0c-.409,2.222-.85,4.191-1.305,5.943a46.332,46.332,0,0,1-16.91,0c-.455-1.749-.892-3.718-1.305-5.932a39.573,39.573,0,0,1-10.68-4.414c-1.9,1.315-3.646,2.424-5.242,3.359a46.349,46.349,0,0,1-11.956-11.96c.931-1.589,2.04-3.33,3.348-5.228a39.7,39.7,0,0,1-4.433-10.7c-2.2-.409-4.165-.846-5.907-1.3a46.316,46.316,0,0,1,0-16.907c1.742-.455,3.7-.892,5.9-1.3a39.528,39.528,0,0,1,4.393-10.656c.011-.021.025-.039.036-.06-1.305-1.894-2.41-3.625-3.337-5.214a46.251,46.251,0,0,1,11.956-11.956c1.588.931,3.319,2.033,5.214,3.337.017-.01.039-.025.06-.035a39.471,39.471,0,0,1,10.655-4.393c.406-2.2.843-4.159,1.3-5.9a46.273,46.273,0,0,1,16.91,0c.455,1.741.893,3.7,1.3,5.907a39.638,39.638,0,0,1,10.695,4.432c1.9-1.308,3.639-2.417,5.231-3.348A46.275,46.275,0,0,1,299.34,138.14c-.932,1.6-2.044,3.341-3.356,5.242a39.4,39.4,0,0,1,4.411,10.684c2.214.409,4.187.846,5.936,1.305A46.01,46.01,0,0,1,307.109,163.822Z"/><path class="cls-3" d="M316.872,208.043l-5.6,5.349-5.349,5.6-.97-.263a5.524,5.524,0,0,1-4.294-2.286,143.831,143.831,0,0,1-11.448-16.3,46.276,46.276,0,0,0,8.807-8.81,143.551,143.551,0,0,1,16.307,11.448,5.516,5.516,0,0,1,2.285,4.293Z"/><line class="cls-3" x1="316.904" y1="208.164" x2="316.872" y2="208.043"/><line class="cls-3" x1="306.043" y1="219.026" x2="305.922" y2="218.994"/><path class="cls-3" d="M316.791,218.912c-4.749,4.745-8.6,5.306-11.082,4.869a2.037,2.037,0,0,1-1.1-3.415l1.312-1.372,5.349-5.6,5.6-5.349,1.372-1.311a2.039,2.039,0,0,1,3.416,1.1C322.1,210.314,321.535,214.164,316.791,218.912Z"/></g></g></svg>