<svg xmlns="http://www.w3.org/2000/svg" viewBox="0 0 335.966 325.213"><defs><style>.cls-1,.cls-3,.cls-4,.cls-5{fill:none;stroke-linecap:round;stroke-linejoin:round;}.cls-1{stroke:#637b8b;stroke-width:3px;}.cls-2{fill:#637b8b;}.cls-3{stroke:#423741;}.cls-3,.cls-5{stroke-width:5px;}.cls-4,.cls-5{stroke:#141018;}.cls-4{stroke-width:8px;}.cls-6{fill:#423841;}</style></defs><title>Active Directory</title><g id="Layer_2" data-name="Layer 2"><g id="Directory_Icon" data-name="Directory Icon"><polyline class="cls-1" points="240.824 95.33 269.338 95.33 286.616 112.608 332.3 112.608"/><polyline class="cls-1" points="227.363 48.735 260.943 48.735 282.63 27.048 312.712 27.048"/><polyline class="cls-1" points="119.628 115.895 94.443 115.895 70.657 139.68 27.284 139.68"/><polyline class="cls-1" points="114.031 64.126 86.048 64.126 67.859 45.937 4.897 45.937"/><circle class="cls-2" cx="312.096" cy="27.132" r="4.281"/><circle class="cls-2" cx="4.281" cy="46.72" r="4.281"/><circle class="cls-2" cx="26.668" cy="139.065" r="4.281"/><circle class="cls-2" cx="331.684" cy="112.481" r="4.281"/><line class="cls-3" x1="138.191" y1="211.102" x2="215.105" y2="211.102"/><circle class="cls-4" cx="113.501" cy="169.297" r="17.065"/><path class="cls-4" d="M140.4,221.778c0,14.853-53.788,14.853-53.788,0a26.894,26.894,0,1,1,53.788,0Z"/><line class="cls-3" x1="176.648" y1="157.869" x2="177.423" y2="246.5"/><line class="cls-3" x1="86.001" y1="303.619" x2="153.725" y2="303.981"/><line class="cls-3" x1="202.505" y1="303.981" x2="270.228" y2="303.981"/><circle class="cls-4" cx="294.126" cy="262.352" r="15.788"/><path class="cls-4" d="M319.008,310.906c0,13.742-49.764,13.742-49.764,0a24.882,24.882,0,1,1,49.764,0Z"/><circle class="cls-4" cx="61.119" cy="262.352" r="15.788"/><path class="cls-4" d="M86,310.906c0,13.742-49.764,13.742-49.764,0a24.882,24.882,0,0,1,49.764,0Z"/><circle class="cls-4" cx="177.623" cy="262.352" r="15.788"/><path class="cls-4" d="M202.505,310.906c0,13.742-49.764,13.742-49.764,0a24.882,24.882,0,0,1,49.764,0Z"/><circle class="cls-4" cx="240.824" cy="166.499" r="17.065"/><path class="cls-4" d="M267.718,218.979c0,14.853-53.788,14.853-53.788,0a26.894,26.894,0,1,1,53.788,0Z"/><path class="cls-4" d="M246.967,64.291l-10.575.25a3.959,3.959,0,0,1-3.811-2.767,61.392,61.392,0,0,0-4.61-10.394,4.032,4.032,0,0,1,.544-4.725l7.273-7.625a3.845,3.845,0,0,0-.129-5.442L218.907,17.611a3.844,3.844,0,0,0-5.442.129l-7.312,7.626a3.906,3.906,0,0,1-4.655.729,62.533,62.533,0,0,0-10.6-4.075,4,4,0,0,1-2.946-3.714L187.7,7.769A3.872,3.872,0,0,0,183.751,4l-23.157.549A3.872,3.872,0,0,0,156.826,8.5l.25,10.536a4.045,4.045,0,0,1-2.767,3.85,61.18,61.18,0,0,0-10.4,4.572,3.963,3.963,0,0,1-4.724-.507l-7.625-7.272a3.845,3.845,0,0,0-5.442.129L110.146,36.561A3.844,3.844,0,0,0,110.275,42l7.625,7.273a3.964,3.964,0,0,1,.73,4.694,61.211,61.211,0,0,0-4.075,10.6,4.044,4.044,0,0,1-3.714,2.946l-10.537.25a3.872,3.872,0,0,0-3.768,3.951l.549,23.157a3.872,3.872,0,0,0,3.951,3.768l10.536-.25a4.01,4.01,0,0,1,3.849,2.728,61.658,61.658,0,0,0,4.573,10.434,3.908,3.908,0,0,1-.507,4.685l-7.272,7.664a3.845,3.845,0,0,0,.129,5.442L129.1,145.322a3.845,3.845,0,0,0,5.443-.129l7.272-7.625a4.031,4.031,0,0,1,4.693-.769,64.639,64.639,0,0,0,10.6,4.114,3.961,3.961,0,0,1,2.945,3.676l.251,10.575a3.872,3.872,0,0,0,3.951,3.768l23.157-.549a3.872,3.872,0,0,0,3.768-3.951l-.25-10.575a3.913,3.913,0,0,1,2.767-3.811,66.079,66.079,0,0,0,10.394-4.611,3.973,3.973,0,0,1,4.686.546l7.664,7.272a3.845,3.845,0,0,0,5.442-.129l15.977-16.753a3.845,3.845,0,0,0-.129-5.442l-7.626-7.311a3.971,3.971,0,0,1-.767-4.654,61.743,61.743,0,0,0,4.112-10.64,3.926,3.926,0,0,1,3.677-2.906l10.575-.251a3.872,3.872,0,0,0,3.768-3.951l-.549-23.157A3.872,3.872,0,0,0,246.967,64.291Z"/><ellipse class="cls-5" cx="174.581" cy="81.997" rx="48.847" ry="49.252" transform="translate(-5.245 151.745) rotate(-46.358)"/><path class="cls-6" d="M189.145,60.475A39.019,39.019,0,0,0,177.5,49.533c-.061-.038-.106-.084-.162-.125V60.689C181.208,60.709,185.2,60.748,189.145,60.475Z"/><path class="cls-6" d="M191.788,65.051a137.094,137.094,0,0,1-14.454.513V77.108h17.788a42.322,42.322,0,0,0-.759-4.622A34.869,34.869,0,0,0,191.788,65.051Z"/><path class="cls-6" d="M193.8,94.239a48.15,48.15,0,0,0,1.092-5.168,47.645,47.645,0,0,0,.5-7.085H177.334v11A80.557,80.557,0,0,1,193.8,94.239Z"/><path class="cls-6" d="M177.334,97.863V115.1a33.469,33.469,0,0,0,5.894-.963,29.729,29.729,0,0,0,6.584-8.181,45.17,45.17,0,0,0,2.635-7.039A75.195,75.195,0,0,0,177.334,97.863Z"/><path class="cls-6" d="M193.123,57.455c.535.781,1.032,1.581,1.5,2.394a40.106,40.106,0,0,0,4.834-1.1A33.554,33.554,0,0,0,186.467,50.1,38.45,38.45,0,0,1,193.123,57.455Z"/><path class="cls-6" d="M202.658,62.778a43.77,43.77,0,0,1-5.822,1.536,44.37,44.37,0,0,1,3.151,12.794h8.165A33.4,33.4,0,0,0,202.658,62.778Z"/><path class="cls-6" d="M201.221,102.184a25.24,25.24,0,0,0-4.084-1.936c-.071.227-.14.454-.212.681a43.026,43.026,0,0,1-3.614,8.754,33.748,33.748,0,0,0,8.047-7.435C201.312,102.224,201.267,102.212,201.221,102.184Z"/><path class="cls-6" d="M203.683,97.972a2.664,2.664,0,0,1,.37.273,33.38,33.38,0,0,0,4.409-16.259h-8.235a55.133,55.133,0,0,1-.875,9.838c-.228,1.259-.524,2.5-.848,3.738A29.445,29.445,0,0,1,203.683,97.972Z"/><path class="cls-6" d="M160.273,60.475a39.031,39.031,0,0,1,11.649-10.942c.062-.038.106-.084.162-.125V60.689C168.21,60.709,164.22,60.748,160.273,60.475Z"/><path class="cls-6" d="M157.631,65.051a137.065,137.065,0,0,0,14.453.513V77.108H154.3a42.32,42.32,0,0,1,.758-4.622A34.871,34.871,0,0,1,157.631,65.051Z"/><path class="cls-6" d="M155.622,94.239a45.06,45.06,0,0,1-1.6-12.253h18.058v11A80.542,80.542,0,0,0,155.622,94.239Z"/><path class="cls-6" d="M172.084,97.863V115.1a33.469,33.469,0,0,1-5.894-.963,29.726,29.726,0,0,1-6.583-8.181,45.074,45.074,0,0,1-2.636-7.039A75.2,75.2,0,0,1,172.084,97.863Z"/><path class="cls-6" d="M156.295,57.455c-.535.781-1.032,1.581-1.5,2.394a40.15,40.15,0,0,1-4.834-1.1A33.561,33.561,0,0,1,162.951,50.1,38.483,38.483,0,0,0,156.295,57.455Z"/><path class="cls-6" d="M146.76,62.778a43.77,43.77,0,0,0,5.822,1.536,44.4,44.4,0,0,0-3.151,12.794h-8.165A33.4,33.4,0,0,1,146.76,62.778Z"/><path class="cls-6" d="M148.2,102.184a25.231,25.231,0,0,1,4.083-1.936c.072.227.141.454.213.681a42.966,42.966,0,0,0,3.613,8.754,33.725,33.725,0,0,1-8.046-7.435C148.107,102.224,148.151,102.212,148.2,102.184Z"/><path class="cls-6" d="M145.735,97.972a2.664,2.664,0,0,0-.37.273,33.391,33.391,0,0,1-4.409-16.259h8.236a54.949,54.949,0,0,0,.875,9.838c.227,1.259.524,2.5.848,3.738A29.421,29.421,0,0,0,145.735,97.972Z"/></g></g></svg>