<svg xmlns="http://www.w3.org/2000/svg" viewBox="0 0 327.852 319"><defs><style>.cls-1,.cls-3,.cls-4,.cls-6{fill:none;}.cls-1,.cls-6{stroke:#423741;}.cls-1,.cls-3,.cls-6{stroke-linecap:round;stroke-linejoin:round;}.cls-1,.cls-4{stroke-width:5px;}.cls-2{fill:#627b8b;}.cls-3{stroke:#130f17;}.cls-3,.cls-5{stroke-width:8px;}.cls-4{stroke:#000;}.cls-4,.cls-5{stroke-miterlimit:10;}.cls-5{fill:#bb7159;stroke:#120e16;}.cls-6{stroke-width:3px;}</style></defs><title>Open Dental</title><g id="Layer_2" data-name="Layer 2"><g id="Open_Dental_Icon" data-name="Open Dental Icon"><circle class="cls-1" cx="214.753" cy="228.743" r="1.334"/><circle class="cls-1" cx="45.362" cy="228.743" r="1.334"/><path class="cls-2" d="M255.011,92.5H202.272a14.261,14.261,0,0,1-14.261-14.261V25.5Z"/><path class="cls-3" d="M255.32,272.209v23.38A19.412,19.412,0,0,1,235.909,315H23.411A19.412,19.412,0,0,1,4,295.589V44.95A19.412,19.412,0,0,1,23.411,25.539h212.5A19.411,19.411,0,0,1,255.32,44.95v90.558"/><path class="cls-4" d="M92.044,27.341H168.07a0,0,0,0,1,0,0V41.674a4.34,4.34,0,0,1-4.34,4.34H96.385a4.34,4.34,0,0,1-4.34-4.34V27.341A0,0,0,0,1,92.044,27.341Z"/><path class="cls-3" d="M108.928,4H152.52a4.213,4.213,0,0,1,4.213,4.213V25.341a0,0,0,0,1,0,0H104.715a0,0,0,0,1,0,0V8.213A4.213,4.213,0,0,1,108.928,4Z"/><line class="cls-1" x1="44.028" y1="256.753" x2="203.387" y2="256.753"/><line class="cls-1" x1="44.028" y1="200.734" x2="216.087" y2="200.734"/><line class="cls-1" x1="60.218" y1="228.743" x2="198.137" y2="228.743"/><path class="cls-5" d="M315.261,78.655l-.77,2.486-.681,2.22L255.243,272.209a1.1,1.1,0,0,1-1.363.719l-3.115-.962-30.621-9.489-2.571-.8a1.1,1.1,0,0,1-.718-1.363L276.064,69.371l.808-2.612a1.1,1.1,0,0,1,1.364-.718l1.9.586L312.5,76.655l2.04.636A1.1,1.1,0,0,1,315.261,78.655Z"/><path class="cls-3" d="M219.968,261.047l4.667,36.728a1.3,1.3,0,0,0,2.246.7l25.161-27.933"/><path class="cls-3" d="M282.614,67.4l5.9-18.118a13.6,13.6,0,0,1,16.466-8.92h0a13.6,13.6,0,0,1,9.483,17.059l-5.477,18.149"/><path class="cls-3" d="M312.677,87.016l3.451.994a10.675,10.675,0,0,1,7.268,13.336L298.511,184"/><path class="cls-6" d="M118.9,91.239a21.058,21.058,0,0,0,27.85-.257"/><path class="cls-1" d="M131.858,84.333c-4.68-.729-8.71-3.7-13.278-4.951a19.824,19.824,0,0,0-17.687,4.043A21.747,21.747,0,0,0,93.425,100.1c.136,11.534,8.839,21.139,11.666,32.322,2.02,7.991.946,16.4,1.472,24.627a35.958,35.958,0,0,0,3.23,13.319,3.292,3.292,0,0,0,6.215-1.582,59.251,59.251,0,0,1,4.59-23.52,10.807,10.807,0,0,1,5.413-5.739c6.7-3.013,12.046,3.238,14.5,9.141a47.179,47.179,0,0,1,3.568,18.682,3.3,3.3,0,0,0,6.06,1.839,36.746,36.746,0,0,0,6.022-17.759c.356-5.541-.543-11.248,1.048-16.569,1-3.332,2.913-6.3,4.709-9.278,3.962-6.575,7.489-13.607,8.565-21.209s-.621-15.912-5.957-21.431c-4.009-4.147-10.758-6.576-16.448-4.946C141.937,79.754,139.412,85.511,131.858,84.333Z"/></g></g></svg>