<svg xmlns="http://www.w3.org/2000/svg" viewBox="0 0 291 303.526"><defs><style>.cls-1{fill:#423841;}.cls-2{fill:#627b8b;}.cls-3,.cls-5,.cls-7{fill:none;}.cls-3{stroke:#020202;stroke-miterlimit:10;}.cls-3,.cls-5{stroke-width:3px;}.cls-4{fill:#bb7159;}.cls-5{stroke:#637b8b;}.cls-5,.cls-7{stroke-linecap:round;stroke-linejoin:round;}.cls-6{fill:#637b8b;}.cls-7{stroke:#130f17;stroke-width:8px;}</style></defs><title>Azure &amp;amp; Cloud</title><g id="Layer_2" data-name="Layer 2"><g id="Azure_Icon" data-name="Azure Icon"><path class="cls-1" d="M90.075,97.739l-4.363,2.739a1.93,1.93,0,0,1-2.285-.209,29.856,29.856,0,0,0-4.519-3.2,1.963,1.963,0,0,1-.948-2.113l1.144-5a1.873,1.873,0,0,0-1.41-2.246L66.7,85.191a1.872,1.872,0,0,0-2.245,1.41L63.3,91.614a1.9,1.9,0,0,1-1.767,1.464,30.534,30.534,0,0,0-5.451.935,1.947,1.947,0,0,1-2.159-.821l-2.729-4.347a1.885,1.885,0,0,0-2.592-.593l-9.556,6a1.887,1.887,0,0,0-.593,2.592l2.73,4.348a1.971,1.971,0,0,1-.2,2.3,29.9,29.9,0,0,0-3.213,4.5,1.931,1.931,0,0,1-2.1.965l-5-1.145a1.872,1.872,0,0,0-2.245,1.41L25.9,120.214a1.872,1.872,0,0,0,1.409,2.246l5,1.144a1.932,1.932,0,0,1,1.475,1.783,29.807,29.807,0,0,0,.935,5.452A1.97,1.97,0,0,1,33.9,133l-4.348,2.729a1.886,1.886,0,0,0-.593,2.592l6,9.556a1.887,1.887,0,0,0,2.593.593l4.347-2.729a1.953,1.953,0,0,1,2.291.183,29.981,29.981,0,0,0,4.513,3.228,1.9,1.9,0,0,1,.955,2.087l-1.135,5.019a1.874,1.874,0,0,0,1.41,2.246l10.991,2.514a1.874,1.874,0,0,0,2.246-1.41l1.144-5a1.963,1.963,0,0,1,1.773-1.49,31.485,31.485,0,0,0,5.462-.92A1.931,1.931,0,0,1,73.7,153l2.739,4.364a1.885,1.885,0,0,0,2.592.593l9.556-6a1.885,1.885,0,0,0,.593-2.592L86.44,145a1.908,1.908,0,0,1,.208-2.285,32.134,32.134,0,0,0,3.2-4.518,1.933,1.933,0,0,1,2.1-.939l5.019,1.134a1.872,1.872,0,0,0,2.245-1.409l2.514-10.992a1.871,1.871,0,0,0-1.409-2.245L95.3,122.585a1.935,1.935,0,0,1-1.481-1.757,30.07,30.07,0,0,0-.929-5.477,1.911,1.911,0,0,1,.815-2.132l4.364-2.739a1.887,1.887,0,0,0,.593-2.593l-6-9.555A1.887,1.887,0,0,0,90.075,97.739Zm-6.627,17.114a21.168,21.168,0,1,1-33.7-7.709A21.13,21.13,0,0,1,83.448,114.853Z"/><path class="cls-2" d="M180.459,129.847l-2.4,2.462a1.288,1.288,0,0,1-1.514.225,19.952,19.952,0,0,0-3.433-1.364,1.308,1.308,0,0,1-.947-1.22l-.047-3.422a1.249,1.249,0,0,0-1.267-1.234l-7.519.1a1.248,1.248,0,0,0-1.233,1.267l.037,3.432a1.269,1.269,0,0,1-.914,1.227,20.3,20.3,0,0,0-3.386,1.465,1.3,1.3,0,0,1-1.528-.192l-2.453-2.388a1.259,1.259,0,0,0-1.774.024l-5.248,5.392a1.258,1.258,0,0,0,.024,1.773l2.453,2.388a1.315,1.315,0,0,1,.234,1.523,19.825,19.825,0,0,0-1.373,3.424,1.288,1.288,0,0,1-1.211.956l-3.422.046A1.25,1.25,0,0,0,142.308,147l.1,7.519a1.249,1.249,0,0,0,1.267,1.233l3.423-.046a1.288,1.288,0,0,1,1.236.923,19.886,19.886,0,0,0,1.465,3.386,1.315,1.315,0,0,1-.192,1.528L147.221,164a1.258,1.258,0,0,0,.024,1.774l5.392,5.248A1.258,1.258,0,0,0,154.41,171l2.388-2.454a1.3,1.3,0,0,1,1.513-.242,20,20,0,0,0,3.434,1.382,1.269,1.269,0,0,1,.947,1.2l.055,3.431a1.25,1.25,0,0,0,1.268,1.234l7.519-.1a1.25,1.25,0,0,0,1.233-1.267l-.046-3.423a1.31,1.31,0,0,1,.914-1.245,21.01,21.01,0,0,0,3.4-1.456,1.288,1.288,0,0,1,1.519.183l2.462,2.4a1.259,1.259,0,0,0,1.774-.024l5.248-5.392a1.259,1.259,0,0,0-.024-1.774l-2.463-2.4a1.273,1.273,0,0,1-.224-1.514,21.33,21.33,0,0,0,1.363-3.433,1.29,1.29,0,0,1,1.212-.938l3.431-.056a1.247,1.247,0,0,0,1.233-1.267l-.1-7.519a1.249,1.249,0,0,0-1.267-1.233l-3.432.037a1.29,1.29,0,0,1-1.236-.905,20.14,20.14,0,0,0-1.465-3.4,1.275,1.275,0,0,1,.192-1.51l2.4-2.462a1.259,1.259,0,0,0-.024-1.774l-5.392-5.248A1.259,1.259,0,0,0,180.459,129.847Zm-1.6,12.135a14.118,14.118,0,1,1-23.056.312A14.1,14.1,0,0,1,178.86,141.982Z"/><path class="cls-3" d="M178.739,103.3l-5-3.7a2.329,2.329,0,0,1-.773-2.66,36.122,36.122,0,0,0,1.607-6.49,2.371,2.371,0,0,1,1.956-2l6.128-.92a2.26,2.26,0,0,0,1.9-2.574L182.536,71.5a2.261,2.261,0,0,0-2.574-1.9l-6.146.907a2.3,2.3,0,0,1-2.425-1.34,36.737,36.737,0,0,0-3.455-5.715,2.352,2.352,0,0,1-.029-2.788l3.683-4.984a2.276,2.276,0,0,0-.476-3.175l-10.955-8.095a2.277,2.277,0,0,0-3.175.476L153.3,49.867a2.38,2.38,0,0,1-2.673.791,35.9,35.9,0,0,0-6.477-1.625,2.332,2.332,0,0,1-2.012-1.939l-.92-6.127a2.26,2.26,0,0,0-2.574-1.9l-13.462,2.02a2.261,2.261,0,0,0-1.9,2.575l.92,6.127a2.332,2.332,0,0,1-1.354,2.444,36.014,36.014,0,0,0-5.715,3.455,2.378,2.378,0,0,1-2.788.028l-4.984-3.683a2.277,2.277,0,0,0-3.175.477L98.09,63.462a2.277,2.277,0,0,0,.477,3.175l4.984,3.684a2.356,2.356,0,0,1,.8,2.655,36.274,36.274,0,0,0-1.638,6.5,2.3,2.3,0,0,1-1.925,1.993l-6.141.938a2.261,2.261,0,0,0-1.9,2.575L94.77,98.439a2.26,2.26,0,0,0,2.574,1.9l6.128-.92a2.372,2.372,0,0,1,2.457,1.335,37.929,37.929,0,0,0,3.441,5.734,2.329,2.329,0,0,1,.042,2.769l-3.7,5a2.275,2.275,0,0,0,.476,3.174l10.955,8.1a2.277,2.277,0,0,0,3.175-.477l3.7-5a2.3,2.3,0,0,1,2.66-.772,38.857,38.857,0,0,0,6.491,1.606,2.337,2.337,0,0,1,1.98,1.943l.938,6.141a2.26,2.26,0,0,0,2.574,1.9l13.462-2.021a2.26,2.26,0,0,0,1.9-2.574l-.906-6.146a2.336,2.336,0,0,1,1.322-2.439,36.246,36.246,0,0,0,5.746-3.46,2.31,2.31,0,0,1,2.756-.024l5,3.7a2.277,2.277,0,0,0,3.175-.476l8.095-10.955A2.277,2.277,0,0,0,178.739,103.3Zm-25.148-2.631a21.133,21.133,0,1,1-5.124-34.134A21.1,21.1,0,0,1,153.591,100.669Z"/><path class="cls-4" d="M262.212,108.137l-5.052,2.22a2.068,2.068,0,0,1-2.389-.579,32,32,0,0,0-4.287-4.1,2.1,2.1,0,0,1-.674-2.387l2-5.123a2.006,2.006,0,0,0-1.142-2.6L239.41,91.185a2.006,2.006,0,0,0-2.6,1.142l-2.014,5.13a2.039,2.039,0,0,1-2.1,1.276,32.6,32.6,0,0,0-5.922.138,2.086,2.086,0,0,1-2.159-1.208L222.4,92.629a2.021,2.021,0,0,0-2.654-1.034l-11.064,4.861a2.02,2.02,0,0,0-1.034,2.654l2.212,5.034a2.111,2.111,0,0,1-.571,2.406,31.989,31.989,0,0,0-4.108,4.269,2.069,2.069,0,0,1-2.38.693l-5.122-2a2.006,2.006,0,0,0-2.6,1.142L190.7,121.912a2.005,2.005,0,0,0,1.142,2.6l5.122,2a2.067,2.067,0,0,1,1.283,2.12,32.02,32.02,0,0,0,.138,5.922,2.11,2.11,0,0,1-1.207,2.159l-5.034,2.211a2.02,2.02,0,0,0-1.034,2.654l4.86,11.064a2.022,2.022,0,0,0,2.655,1.034l5.033-2.212a2.094,2.094,0,0,1,2.4.552,32.078,32.078,0,0,0,4.277,4.127,2.04,2.04,0,0,1,.685,2.361l-1.987,5.141a2.005,2.005,0,0,0,1.142,2.6l11.253,4.383a2.005,2.005,0,0,0,2.6-1.142l2-5.122a2.1,2.1,0,0,1,2.112-1.3,33.674,33.674,0,0,0,5.931-.12,2.067,2.067,0,0,1,2.15,1.19l2.22,5.052a2.02,2.02,0,0,0,2.654,1.034l11.064-4.861a2.019,2.019,0,0,0,1.033-2.654l-2.219-5.052a2.042,2.042,0,0,1,.579-2.388,34.61,34.61,0,0,0,4.1-4.287,2.071,2.071,0,0,1,2.369-.667l5.14,1.987a2.005,2.005,0,0,0,2.6-1.142l4.384-11.253A2.006,2.006,0,0,0,269,137.3l-5.131-2.014a2.073,2.073,0,0,1-1.293-2.093,32.313,32.313,0,0,0-.128-5.95,2.046,2.046,0,0,1,1.2-2.131l5.053-2.22a2.02,2.02,0,0,0,1.033-2.654l-4.86-11.064A2.021,2.021,0,0,0,262.212,108.137Zm-13.12,18.2a18.748,18.748,0,1,1-28.533-11.115A18.715,18.715,0,0,1,249.092,126.333Z"/><polyline class="cls-5" points="235.093 184.25 235.093 222.401 253.411 240.719 253.411 266.675"/><polyline class="cls-5" points="200.597 184.25 200.597 239.357 190.946 249.008 190.946 300.587"/><polyline class="cls-5" points="145.52 184.25 145.52 198.851 165.763 219.094 165.763 282.689"/><polyline class="cls-5" points="114.557 184.25 114.557 213.923 89.052 239.429 89.052 261.965"/><polyline class="cls-5" points="62.85 185.311 62.85 230.879 50.952 242.777 50.952 285.515"/><circle class="cls-6" cx="89.036" cy="262.022" r="2.883"/><circle class="cls-6" cx="50.414" cy="285.572" r="2.883"/><circle class="cls-6" cx="166.281" cy="282.746" r="2.883"/><circle class="cls-6" cx="190.773" cy="300.644" r="2.883"/><circle class="cls-6" cx="253.887" cy="266.732" r="2.883"/><path class="cls-7" d="M287,130.148c0,30.231-24.53,54.1-54.76,54.1H64.831A60.821,60.821,0,1,1,81.376,64.893a49.3,49.3,0,0,1-1.193-10.825,50.068,50.068,0,1,1,100.136,0v.083c.618-.062,1.256-.083,1.894-.083a26.4,26.4,0,0,1,26.4,26.4v.247A54.809,54.809,0,0,1,287,130.148Z"/></g></g></svg>