<svg xmlns="http://www.w3.org/2000/svg" viewBox="0 0 320.6 340.282"><defs><style>.cls-1,.cls-2,.cls-5,.cls-6{fill:none;stroke-linecap:round;stroke-linejoin:round;}.cls-1{stroke:#130f17;}.cls-1,.cls-2{stroke-width:8px;}.cls-2{stroke:#141018;}.cls-3{fill:#423841;}.cls-4{fill:#423741;}.cls-5{stroke:#423741;}.cls-5,.cls-6{stroke-width:3px;}.cls-6{stroke:#637b8b;}</style></defs><title>Proxmox</title><g id="Layer_2" data-name="Layer 2"><g id="Proxmox_Icon" data-name="Proxmox Icon"><path class="cls-1" d="M22.411,118.852a7.317,7.317,0,0,0-6.149,5.28L4.279,166.516a7.317,7.317,0,0,0,5.055,9.04l19.293,5.454a7.668,7.668,0,0,1,5.464,7.212,123.024,123.024,0,0,0,2.506,21.49,7.539,7.539,0,0,1-3.565,8.222l-17.567,9.823a7.367,7.367,0,0,0-2.826,10L34.15,276.22a7.366,7.366,0,0,0,10,2.826l17.566-9.823a7.448,7.448,0,0,1,8.872,1.267,125.724,125.724,0,0,0,17,13.386,7.559,7.559,0,0,1,3.247,8.368L85.41,311.6a7.315,7.315,0,0,0,5.055,9.04l42.384,11.982a7.315,7.315,0,0,0,9.04-5.055l5.519-19.328a7.558,7.558,0,0,1,7.148-5.428,114.024,114.024,0,0,0,18.17-1.886m116.452-62.283,9.779-34.589a7.316,7.316,0,0,0-5.055-9.04L274.573,189.5a7.433,7.433,0,0,1-5.364-7.184,119.059,119.059,0,0,0-2.57-21.454,7.6,7.6,0,0,1,3.629-8.257l17.5-9.787a7.368,7.368,0,0,0,2.826-10L269.086,94.349a7.366,7.366,0,0,0-10-2.826l-17.5,9.787a7.7,7.7,0,0,1-8.936-1.23,116.453,116.453,0,0,0-16.933-13.423,7.544,7.544,0,0,1-3.347-8.4l5.454-19.293a7.316,7.316,0,0,0-5.055-9.04L170.387,37.946A7.315,7.315,0,0,0,161.347,43l-5.455,19.293a7.544,7.544,0,0,1-7.247,5.4q-4.437.123-8.9.577m31.467,184.378a68.376,68.376,0,0,1-59.445-120.92m24.964-11.423a68.4,68.4,0,0,1,70.291,107.2"/><polygon class="cls-2" points="296.357 336.282 172.726 336.282 192.247 257.476 316.6 257.476 296.357 336.282"/><polyline class="cls-2" points="306.659 256.934 306.479 237.233 215.382 237.233 201.645 223.496 172.003 223.496 172.003 335.559"/><path class="cls-3" d="M272.065,292.188h-4.071a1.526,1.526,0,0,1-1.441-1.1,23.6,23.6,0,0,0-1.679-4.042,1.55,1.55,0,0,1,.253-1.812l2.867-2.867a1.481,1.481,0,0,0,0-2.095l-6.3-6.3a1.481,1.481,0,0,0-2.095,0l-2.882,2.868a1.506,1.506,0,0,1-1.8.238,24.076,24.076,0,0,0-4.041-1.665,1.537,1.537,0,0,1-1.1-1.456V269.9a1.489,1.489,0,0,0-1.485-1.486H239.38a1.489,1.489,0,0,0-1.486,1.486v4.055a1.556,1.556,0,0,1-1.1,1.456,23.547,23.547,0,0,0-4.042,1.665,1.527,1.527,0,0,1-1.812-.238l-2.867-2.868a1.481,1.481,0,0,0-2.095,0l-6.3,6.3a1.481,1.481,0,0,0,0,2.095l2.868,2.867a1.525,1.525,0,0,1,.237,1.812,23.624,23.624,0,0,0-1.664,4.042,1.557,1.557,0,0,1-1.456,1.1h-4.055a1.489,1.489,0,0,0-1.486,1.486v8.914a1.489,1.489,0,0,0,1.486,1.485h4.055a1.543,1.543,0,0,1,1.456,1.085,23.8,23.8,0,0,0,1.664,4.056,1.5,1.5,0,0,1-.237,1.8l-2.868,2.882a1.481,1.481,0,0,0,0,2.095l6.3,6.3a1.479,1.479,0,0,0,2.095,0l2.867-2.867a1.55,1.55,0,0,1,1.812-.253,24.861,24.861,0,0,0,4.042,1.679,1.526,1.526,0,0,1,1.1,1.441v4.071a1.49,1.49,0,0,0,1.486,1.486h8.914a1.49,1.49,0,0,0,1.485-1.486v-4.071a1.507,1.507,0,0,1,1.1-1.441,25.456,25.456,0,0,0,4.041-1.679,1.529,1.529,0,0,1,1.8.253l2.882,2.867a1.479,1.479,0,0,0,2.095,0l6.3-6.3a1.481,1.481,0,0,0,0-2.095l-2.867-2.882a1.529,1.529,0,0,1-.253-1.8,23.772,23.772,0,0,0,1.679-4.056,1.511,1.511,0,0,1,1.441-1.085h4.071a1.49,1.49,0,0,0,1.486-1.485v-8.914A1.49,1.49,0,0,0,272.065,292.188Zm-11.624,8.669a16.725,16.725,0,1,1-19.316-19.316A16.7,16.7,0,0,1,260.441,300.857Z"/><path class="cls-2" d="M138.545,24.469a1.885,1.885,0,0,1-.018.318c-.245,5.805-7.377,11.011-18.66,14.672-1.354.445-2.781.863-4.252,1.263A111.77,111.77,0,0,1,103.9,43.165h-.018a155.32,155.32,0,0,1-23.894,1.781,155.2,155.2,0,0,1-24.075-1.808H55.9a110.259,110.259,0,0,1-11.711-2.471q-2.112-.572-4.061-1.208c-10.738-3.48-17.725-8.377-18.6-13.837a7.032,7.032,0,0,1-.091-1.153C21.439,13.167,47.65,4,79.992,4S138.545,13.167,138.545,24.469Z"/><path class="cls-2" d="M21.53,53.3v2.3a7.306,7.306,0,0,1,0-2.3Z"/><path class="cls-2" d="M21.53,83.285v2.3a7.3,7.3,0,0,1,0-2.3Z"/><path class="cls-2" d="M138.822,54.172c0,5.933-7.472,11.533-18.955,15.267h-.01c-1.353.446-2.771.863-4.242,1.263A111.762,111.762,0,0,1,103.9,73.146h-.018a155.32,155.32,0,0,1-23.894,1.781,155.2,155.2,0,0,1-24.075-1.808H55.9a110.259,110.259,0,0,1-11.711-2.471c-1.408-.382-2.761-.782-4.061-1.209C29.389,65.96,22.4,61.063,21.53,55.6V25.622c.872,5.46,7.859,10.357,18.6,13.837q1.95.641,4.061,1.208A110.259,110.259,0,0,0,55.9,43.138h.018a155.2,155.2,0,0,0,24.075,1.808,155.32,155.32,0,0,0,23.894-1.781h.018a111.77,111.77,0,0,0,11.711-2.443c1.471-.4,2.9-.818,4.252-1.263"/><path class="cls-2" d="M100.994,103.439a120.433,120.433,0,0,1-21,1.468A155.2,155.2,0,0,1,55.917,103.1H55.9a110.259,110.259,0,0,1-11.711-2.471c-1.9-.518-3.715-1.072-5.414-1.662C28.8,95.522,22.366,90.816,21.53,85.583V55.6c.872,5.46,7.859,10.357,18.6,13.836,1.3.427,2.653.827,4.061,1.209A110.259,110.259,0,0,0,55.9,73.119h.018a155.2,155.2,0,0,0,24.075,1.808,155.32,155.32,0,0,0,23.894-1.781h.018A111.762,111.762,0,0,0,115.615,70.7c1.471-.4,2.889-.817,4.242-1.263h.01"/><path class="cls-2" d="M108.338,131.425q-2.161.418-4.434.774h-.018a155.45,155.45,0,0,1-23.894,1.78,155.2,155.2,0,0,1-24.075-1.808H55.9A110.259,110.259,0,0,1,44.188,129.7c-13.836-3.734-22.749-9.6-22.749-16.2a7.014,7.014,0,0,1,.091-1.145V85.583c.836,5.233,7.268,9.939,17.244,13.383,1.7.59,3.516,1.144,5.414,1.662A110.259,110.259,0,0,0,55.9,103.1h.018a155.2,155.2,0,0,0,24.075,1.808,158.371,158.371,0,0,0,20.825-1.335"/><line class="cls-2" x1="138.727" y1="51.351" x2="138.727" y2="74.017"/><line class="cls-2" x1="138.727" y1="24.55" x2="138.727" y2="56.348"/><path class="cls-2" d="M21.717,24.469a1.885,1.885,0,0,0,.018.318C21.98,30.592,29.112,35.8,40.4,39.459c1.354.445,2.78.863,4.252,1.263a111.716,111.716,0,0,0,11.711,2.443h.018A155.32,155.32,0,0,0,80.27,44.946a155.2,155.2,0,0,0,24.075-1.808h.018a110.259,110.259,0,0,0,11.711-2.471q2.112-.572,4.061-1.208c10.738-3.48,17.724-8.377,18.6-13.837a7.032,7.032,0,0,0,.09-1.153C138.822,13.167,112.612,4,80.27,4S21.717,13.167,21.717,24.469Z"/><path class="cls-2" d="M138.732,53.3v2.3a7.386,7.386,0,0,0,0-2.3Z"/><path class="cls-2" d="M138.732,83.285v2.3a7.379,7.379,0,0,0,0-2.3Z"/><path class="cls-2" d="M21.439,54.172c0,5.933,7.473,11.533,18.956,15.267H40.4c1.354.446,2.771.863,4.243,1.263a111.708,111.708,0,0,0,11.711,2.444h.018A155.32,155.32,0,0,0,80.27,74.927a155.2,155.2,0,0,0,24.075-1.808h.018a110.259,110.259,0,0,0,11.711-2.471c1.408-.382,2.761-.782,4.061-1.209,10.738-3.479,17.724-8.376,18.6-13.836V25.622c-.873,5.46-7.859,10.357-18.6,13.837q-1.95.641-4.061,1.208a110.259,110.259,0,0,1-11.711,2.471h-.018A155.2,155.2,0,0,1,80.27,44.946a155.32,155.32,0,0,1-23.894-1.781h-.018a111.716,111.716,0,0,1-11.711-2.443c-1.472-.4-2.9-.818-4.252-1.263"/><path class="cls-2" d="M59.268,103.439a120.433,120.433,0,0,0,21,1.468,155.2,155.2,0,0,0,24.075-1.808h.018a110.259,110.259,0,0,0,11.711-2.471c1.9-.518,3.715-1.072,5.414-1.662,9.976-3.444,16.408-8.15,17.244-13.383V55.6c-.873,5.46-7.859,10.357-18.6,13.836-1.3.427-2.653.827-4.061,1.209a110.259,110.259,0,0,1-11.711,2.471h-.018A155.2,155.2,0,0,1,80.27,74.927a155.32,155.32,0,0,1-23.894-1.781h-.018A111.708,111.708,0,0,1,44.647,70.7c-1.472-.4-2.889-.817-4.243-1.263H40.4"/><path class="cls-2" d="M51.924,131.425q2.16.418,4.434.774h.018a155.45,155.45,0,0,0,23.894,1.78,155.2,155.2,0,0,0,24.075-1.808h.018a110.259,110.259,0,0,0,11.711-2.471c13.836-3.734,22.748-9.6,22.748-16.2a7.013,7.013,0,0,0-.09-1.145V85.583c-.836,5.233-7.268,9.939-17.244,13.383-1.7.59-3.516,1.144-5.414,1.662a110.259,110.259,0,0,1-11.711,2.471h-.018a155.2,155.2,0,0,1-24.075,1.808,158.371,158.371,0,0,1-20.825-1.335"/><line class="cls-2" x1="21.535" y1="51.351" x2="21.535" y2="74.017"/><line class="cls-2" x1="21.535" y1="24.55" x2="21.535" y2="56.348"/><circle class="cls-4" cx="123.89" cy="49.761" r="2.085"/><circle class="cls-4" cx="129.668" cy="47.815" r="2.085"/><path class="cls-5" d="M30.076,45.869c7.974,5.62,17.206,7.254,26.964,8.2"/><circle class="cls-4" cx="125.11" cy="77.801" r="2.085"/><circle class="cls-4" cx="130.887" cy="75.856" r="2.085"/><path class="cls-5" d="M30.134,74.941c7.9,5.73,17.1,7.494,26.847,8.573"/><circle class="cls-4" cx="125.11" cy="108.28" r="2.085"/><circle class="cls-4" cx="130.887" cy="106.335" r="2.085"/><path class="cls-5" d="M30.134,105.419c7.9,5.731,17.1,7.494,26.847,8.573"/><path class="cls-6" d="M120.952,275.909A94.017,94.017,0,0,1,60.527,158.025"/><polyline class="cls-6" points="109.059 282.062 122.919 274.893 115.746 261.025"/><path class="cls-6" d="M179.283,97.151A94.016,94.016,0,0,1,239.71,215.036"/><polyline class="cls-6" points="191.611 90.775 177.318 98.167 184.836 112.702"/></g></g></svg>