<svg xmlns="http://www.w3.org/2000/svg" viewBox="0 0 352.816 377.948"><defs><style>.cls-1,.cls-3,.cls-4,.cls-5,.cls-7{fill:none;}.cls-1{stroke:#627b8b;stroke-width:3px;}.cls-1,.cls-5,.cls-6,.cls-7{stroke-linecap:round;stroke-linejoin:round;}.cls-2{fill:#627b8b;}.cls-3,.cls-4{stroke:#141018;stroke-miterlimit:10;}.cls-3{stroke-width:8px;}.cls-4,.cls-5,.cls-6,.cls-7{stroke-width:5px;}.cls-5,.cls-6{stroke:#bb7159;}.cls-6{fill:#bb7159;}.cls-7{stroke:#423841;}.cls-8{fill:#423841;}</style></defs><title>MS Tool Icon</title><g id="Layer_2" data-name="Layer 2"><g id="Layer_24" data-name="Layer 24"><polyline class="cls-1" points="226.364 94.986 226.364 76.323 232.166 70.521 232.166 59.366"/><polyline class="cls-1" points="278.37 148.844 294.973 148.844 309.321 134.497 329.669 134.497"/><line class="cls-1" x1="24.354" y1="162.539" x2="3.06" y2="162.539"/><polyline class="cls-1" points="81.526 244.938 63.75 244.938 50.799 257.888 20.799 257.888"/><polyline class="cls-1" points="145.565 311.801 145.565 327.018 136.139 336.445 136.139 374.497"/><polyline class="cls-1" points="195.142 312.417 195.142 346.323 202.275 353.456 202.275 362.236"/><polyline class="cls-1" points="235.807 283.739 235.807 293.888 245.042 303.123 245.042 330.671"/><polyline class="cls-1" points="271.838 210.049 304.364 210.049 316.936 222.621 349.756 222.621"/><circle class="cls-2" cx="245.042" cy="330.671" r="3.06"/><circle class="cls-2" cx="349.756" cy="222.621" r="3.06"/><circle class="cls-2" cx="329.669" cy="134.497" r="3.06"/><circle class="cls-2" cx="232.166" cy="59.366" r="3.06"/><circle class="cls-2" cx="3.06" cy="162.539" r="3.06"/><circle class="cls-2" cx="20.799" cy="257.888" r="3.06"/><circle class="cls-2" cx="202.275" cy="362.757" r="3.06"/><circle class="cls-2" cx="136.139" cy="374.888" r="3.06"/><path class="cls-3" d="M170.1,53.3c.644-1.045.958-1.626.958-1.626s30,55.565,104.739,55.565c0,0,28.565,183.13-104.739,212.869C94.535,303.033,71.354,235.412,65.49,180.9"/><path class="cls-4" d="M166.1,96.032C169.329,92.977,171.06,91,171.06,91s31.166,38.009,80.508,38.009c0,0,19.5,137.392-80.508,159.7C108.686,274.8,92.8,216.116,89.675,173.923"/><path class="cls-5" d="M132.5,30.156c12.023-.564,22.427,2.568,29.677,9.818,20.634,20.634,7.907,66.815-28.426,103.149S51.238,192.183,30.6,171.549c-13.226-13.226-12.746-36.947-1.129-61.843a45.817,45.817,0,0,1,13.268,13.926c13.415,13.415,43.439,5.141,67.061-18.48,19.869-19.87,31.9-53.646,18.48-67.061-10.927-6.247-19.756-16.511-27.337-29.166,13.415,13.414,1.39,47.19-18.48,67.06-23.622,23.621-53.646,31.9-67.061,18.481S10.265,51.027,33.887,27.405C51.906,9.386,73.651.3,88.906,2.955"/><ellipse class="cls-6" cx="57.534" cy="51.357" rx="45.22" ry="22.268" transform="translate(-19.464 55.725) rotate(-45)"/><path class="cls-7" d="M219.734,205.359v15c0,26.726-48.392,48.391-48.392,48.391s-48.391-21.665-48.391-48.391V196.8h99.1a7.07,7.07,0,0,0,7.071-7.07V182.6a6.978,6.978,0,0,0-6.978-6.978H120.407a6.847,6.847,0,0,0-6.847,6.847v6.457"/><path class="cls-7" d="M182.37,144.757a21.512,21.512,0,0,1,10.494,18.485v5.725"/><path class="cls-7" d="M149.82,168.967v-5.725a21.527,21.527,0,0,1,32.55-18.485"/><path class="cls-7" d="M136.284,152.923a36.54,36.54,0,0,0-1.478,10.319v5.725"/><path class="cls-7" d="M207.878,168.967v-5.725a36.542,36.542,0,0,0-71.594-10.319"/><path class="cls-8" d="M185.428,219.237a12.521,12.521,0,0,1-6.341,10.885,3.182,3.182,0,0,0-1.569,2.777v15.563a3.725,3.725,0,0,1-3.725,3.725h-2.344a3.841,3.841,0,0,1-3.841-3.841V232.5a3.347,3.347,0,0,0-1.562-2.783,12.522,12.522,0,1,1,19.382-10.477Z"/></g></g></svg>