<svg xmlns="http://www.w3.org/2000/svg" viewBox="0 0 261.822 307.19"><defs><style>.cls-1,.cls-2{fill:none;}.cls-1{stroke:#130f17;stroke-linecap:round;stroke-linejoin:round;stroke-width:8px;}.cls-2{stroke:#000;stroke-miterlimit:10;stroke-width:5px;}.cls-3{font-size:50.065px;fill:#637a8c;font-family:Roboto-Regular, Roboto;}.cls-4{fill:#423741;}.cls-5{fill:#bc7259;}</style></defs><title>CRM Implementation Service</title><g id="Layer_2" data-name="Layer 2"><g id="IT_TOOLS_Icon" data-name="IT TOOLS Icon"><path class="cls-1" d="M97.258,252H19.479A15.479,15.479,0,0,1,4,236.524V36.655A15.479,15.479,0,0,1,19.479,21.176H188.933a15.479,15.479,0,0,1,15.479,15.479V61.828"/><path class="cls-2" d="M74.21,22.613h60.626a0,0,0,0,1,0,0v10.55a4.34,4.34,0,0,1-4.34,4.34H78.55a4.34,4.34,0,0,1-4.34-4.34V22.613A0,0,0,0,1,74.21,22.613Z"/><path class="cls-1" d="M88.527,4h33.055a4.213,4.213,0,0,1,4.213,4.213V21.018a0,0,0,0,1,0,0H84.314a0,0,0,0,1,0,0V8.213A4.213,4.213,0,0,1,88.527,4Z"/><text class="cls-3" transform="translate(52.326 95.472)">CRM</text><circle class="cls-4" cx="203.297" cy="197.46" r="10.79"/><path class="cls-4" d="M220.3,230.643c0,9.391-34.01,9.391-34.01,0a17,17,0,0,1,34.01,0Z"/><circle class="cls-4" cx="120.885" cy="197.46" r="10.79"/><path class="cls-4" d="M137.89,230.643c0,9.391-34.01,9.391-34.01,0a17,17,0,1,1,34.01,0Z"/><circle class="cls-4" cx="161.487" cy="184.713" r="14.785"/><path class="cls-4" d="M184.788,230.184c0,12.869-46.6,12.869-46.6,0a23.3,23.3,0,1,1,46.6,0Z"/><path class="cls-5" d="M219.866,52.9,183.12,74.123a1.806,1.806,0,0,0,.9,3.371h73.492a1.807,1.807,0,0,0,.9-3.371L221.673,52.9A1.811,1.811,0,0,0,219.866,52.9Z"/><rect class="cls-5" x="200.543" y="81.827" width="40.453" height="10.512" rx="1.861"/><rect class="cls-5" x="200.543" y="96.671" width="40.453" height="10.512" rx="1.877"/><path class="cls-1" d="M187.129,296.076l-.92-13.024a4.89,4.89,0,0,1,3.192-4.859,75.791,75.791,0,0,0,12.549-6.284,4.974,4.974,0,0,1,5.856.4l9.822,8.526a4.746,4.746,0,0,0,6.7-.474l18.73-21.576a4.745,4.745,0,0,0-.473-6.7l-9.824-8.574a4.822,4.822,0,0,1-1.168-5.7,77.131,77.131,0,0,0,4.411-13.305,4.933,4.933,0,0,1,4.41-3.846l12.976-.916a4.78,4.78,0,0,0,4.418-5.089L255.8,186.136a4.779,4.779,0,0,0-5.089-4.418l-12.976.916a4.992,4.992,0,0,1-4.906-3.188,75.632,75.632,0,0,0-6.237-12.553,4.892,4.892,0,0,1,.352-5.852l8.525-9.822a4.745,4.745,0,0,0-.473-6.7l-21.576-18.73a4.745,4.745,0,0,0-6.7.473l-8.527,9.821a4.893,4.893,0,0,1-5.745,1.17,75.641,75.641,0,0,0-13.3-4.411,4.991,4.991,0,0,1-3.846-4.409l-.917-12.976a4.778,4.778,0,0,0-5.088-4.418l-28.519,2.014a4.778,4.778,0,0,0-4.418,5.088l.916,12.977a4.948,4.948,0,0,1-3.141,4.9,76.034,76.034,0,0,0-12.6,6.24,4.823,4.823,0,0,1-5.805-.355l-9.869-8.523a4.746,4.746,0,0,0-6.7.474L80.418,155.431a4.745,4.745,0,0,0,.474,6.7l9.821,8.526a4.976,4.976,0,0,1,1.218,5.742,79.72,79.72,0,0,0-4.459,13.308,4.89,4.89,0,0,1-4.362,3.843l-13.024.919a4.779,4.779,0,0,0-4.417,5.089l2.013,28.519a4.78,4.78,0,0,0,5.089,4.418l13.024-.92a4.832,4.832,0,0,1,4.859,3.192,81.48,81.48,0,0,0,6.284,12.549,4.9,4.9,0,0,1-.4,5.809L88.013,263a4.746,4.746,0,0,0,.473,6.7l21.577,18.73a4.745,4.745,0,0,0,6.7-.473l8.574-9.824a4.9,4.9,0,0,1,5.694-1.215,76.214,76.214,0,0,0,13.355,4.455,4.849,4.849,0,0,1,3.8,4.366l.919,13.024a4.778,4.778,0,0,0,5.089,4.417l28.519-2.013A4.781,4.781,0,0,0,187.129,296.076Z"/></g></g></svg>