<svg xmlns="http://www.w3.org/2000/svg" viewBox="0 0 353.729 236.89"><defs><style>.cls-1,.cls-4,.cls-6,.cls-7,.cls-8{fill:none;stroke-linecap:round;stroke-linejoin:round;}.cls-1{stroke:#423741;}.cls-1,.cls-4,.cls-8{stroke-width:3px;}.cls-2{fill:#627b8b;}.cls-3{fill:#bc7259;}.cls-4{stroke:#627b8b;}.cls-5{fill:#637b8b;}.cls-6,.cls-7,.cls-8{stroke:#141018;}.cls-6{stroke-width:8px;}.cls-7{stroke-width:5px;}.cls-9{fill:#130f17;}</style></defs><title>VMWare</title><g id="Layer_2" data-name="Layer 2"><g id="VMware_Icon" data-name="VMware Icon"><path class="cls-1" d="M129.855,121.735H70.576l9.118-36.812a3.675,3.675,0,0,1,3.567-2.791h54.88a3.675,3.675,0,0,1,3.559,4.589l-8.286,32.254A3.675,3.675,0,0,1,129.855,121.735Z"/><path class="cls-1" d="M137.882,81.86l-.057-6.26a3.674,3.674,0,0,0-3.674-3.641H92.012l-5.827-5.827a3.675,3.675,0,0,0-2.6-1.076h-9.7a3.674,3.674,0,0,0-3.675,3.674v52.642"/><path class="cls-1" d="M273.689,121.735h-59.28l9.119-36.812a3.675,3.675,0,0,1,3.567-2.791h54.879a3.674,3.674,0,0,1,3.559,4.589l-8.285,32.254A3.675,3.675,0,0,1,273.689,121.735Z"/><path class="cls-1" d="M281.716,81.86l-.057-6.26a3.674,3.674,0,0,0-3.674-3.641H235.846l-5.827-5.827a3.675,3.675,0,0,0-2.6-1.076h-9.7a3.674,3.674,0,0,0-3.675,3.674v52.642"/><path class="cls-2" d="M122.335,99.576H120.29a.767.767,0,0,1-.725-.552,11.879,11.879,0,0,0-.843-2.031.779.779,0,0,1,.127-.911l1.441-1.441a.744.744,0,0,0,0-1.053l-3.166-3.166a.744.744,0,0,0-1.053,0l-1.448,1.441a.757.757,0,0,1-.9.12,12.066,12.066,0,0,0-2.03-.836.774.774,0,0,1-.553-.732V88.377a.749.749,0,0,0-.747-.747H105.91a.749.749,0,0,0-.747.747v2.038a.783.783,0,0,1-.552.732,11.775,11.775,0,0,0-2.031.836.767.767,0,0,1-.911-.12l-1.441-1.441a.744.744,0,0,0-1.053,0l-3.166,3.166a.744.744,0,0,0,0,1.053l1.441,1.441a.767.767,0,0,1,.12.911,11.775,11.775,0,0,0-.836,2.031.783.783,0,0,1-.732.552H93.964a.749.749,0,0,0-.747.747V104.8a.749.749,0,0,0,.747.747H96a.776.776,0,0,1,.732.545,11.879,11.879,0,0,0,.836,2.038.757.757,0,0,1-.12.9l-1.441,1.448a.744.744,0,0,0,0,1.053l3.166,3.166a.744.744,0,0,0,1.053,0l1.441-1.441a.779.779,0,0,1,.911-.127,12.469,12.469,0,0,0,2.031.843.767.767,0,0,1,.552.725v2.045a.749.749,0,0,0,.747.747h4.479a.749.749,0,0,0,.747-.747V114.7a.758.758,0,0,1,.553-.725,12.8,12.8,0,0,0,2.03-.843.769.769,0,0,1,.9.127l1.448,1.441a.744.744,0,0,0,1.053,0l3.166-3.166a.744.744,0,0,0,0-1.053l-1.441-1.448a.769.769,0,0,1-.127-.9,11.984,11.984,0,0,0,.843-2.038.76.76,0,0,1,.725-.545h2.045a.749.749,0,0,0,.747-.747v-4.479A.749.749,0,0,0,122.335,99.576Zm-5.841,4.357a8.4,8.4,0,1,1-9.707-9.707A8.393,8.393,0,0,1,116.494,103.933Z"/><path class="cls-2" d="M264.671,99.576h-2.046a.765.765,0,0,1-.724-.552,11.8,11.8,0,0,0-.844-2.031.781.781,0,0,1,.127-.911l1.441-1.441a.744.744,0,0,0,0-1.053l-3.165-3.166a.744.744,0,0,0-1.053,0l-1.449,1.441a.755.755,0,0,1-.9.12,12.042,12.042,0,0,0-2.031-.836.774.774,0,0,1-.552-.732V88.377a.749.749,0,0,0-.747-.747h-4.48a.749.749,0,0,0-.746.747v2.038a.784.784,0,0,1-.553.732,11.808,11.808,0,0,0-2.031.836.766.766,0,0,1-.91-.12l-1.441-1.441a.744.744,0,0,0-1.053,0l-3.166,3.166a.744.744,0,0,0,0,1.053l1.441,1.441a.767.767,0,0,1,.12.911,11.858,11.858,0,0,0-.837,2.031.781.781,0,0,1-.731.552H236.3a.749.749,0,0,0-.746.747V104.8a.749.749,0,0,0,.746.747h2.039a.774.774,0,0,1,.731.545,11.963,11.963,0,0,0,.837,2.038.757.757,0,0,1-.12.9l-1.441,1.448a.744.744,0,0,0,0,1.053l3.166,3.166a.744.744,0,0,0,1.053,0l1.441-1.441a.778.778,0,0,1,.91-.127,12.506,12.506,0,0,0,2.031.843.768.768,0,0,1,.553.725v2.045a.749.749,0,0,0,.746.747h4.48a.749.749,0,0,0,.747-.747V114.7a.758.758,0,0,1,.552-.725,12.771,12.771,0,0,0,2.031-.843.767.767,0,0,1,.9.127l1.449,1.441a.744.744,0,0,0,1.053,0l3.165-3.166a.744.744,0,0,0,0-1.053l-1.441-1.448a.77.77,0,0,1-.127-.9,11.907,11.907,0,0,0,.844-2.038.759.759,0,0,1,.724-.545h2.046a.749.749,0,0,0,.747-.747v-4.479A.749.749,0,0,0,264.671,99.576Zm-5.842,4.357a8.4,8.4,0,1,1-9.706-9.707A8.39,8.39,0,0,1,258.829,103.933Z"/><path class="cls-3" d="M198.815,95.858l-15.2-26.325a1.807,1.807,0,0,0-3.371.9v52.65a1.807,1.807,0,0,0,3.371.9l15.2-26.325A1.806,1.806,0,0,0,198.815,95.858Z"/><rect class="cls-3" x="157.572" y="92.765" width="30.759" height="7.993" rx="1.861" transform="translate(269.713 -76.19) rotate(90)"/><rect class="cls-3" x="146.285" y="92.765" width="30.759" height="7.993" rx="1.877" transform="translate(258.426 -64.903) rotate(90)"/><polyline class="cls-4" points="190.234 219.809 204.256 233.831 320.538 233.831"/><polyline class="cls-4" points="307.843 168.809 317.799 168.809 327.777 178.787 350.669 178.787"/><polyline class="cls-4" points="307.843 64.331 318.549 64.331 331.603 51.276 339.962 51.276"/><polyline class="cls-4" points="207.843 27.154 196.043 15.354 114.712 15.354 102.418 3.06 37.756 3.06"/><polyline class="cls-4" points="48.191 57.804 38.408 57.804 29.231 66.98 3.06 66.98"/><polyline class="cls-4" points="48.191 147.679 25.887 147.679 16.495 138.287 9.582 138.287"/><circle class="cls-5" cx="320.538" cy="233.831" r="3.06"/><circle class="cls-5" cx="350.669" cy="178.787" r="3.06"/><circle class="cls-5" cx="9.582" cy="138.287" r="3.06"/><circle class="cls-5" cx="37.756" cy="3.06" r="3.06"/><circle class="cls-5" cx="339.962" cy="51.276" r="3.06"/><circle class="cls-5" cx="3.06" cy="66.98" r="3.06"/><rect class="cls-6" x="48.191" y="27.154" width="259.651" height="159.655" rx="14.283"/><path class="cls-6" d="M271.582,219.809H84.452l3.761-9.159a14.254,14.254,0,0,1,13.186-8.841h153.41a14.256,14.256,0,0,1,13.275,9.06Z"/><polygon class="cls-6" points="225.408 201.809 130.626 201.809 134.369 186.809 221.84 186.809 225.408 201.809"/><line class="cls-7" x1="48.191" y1="158.331" x2="307.843" y2="158.331"/><circle class="cls-8" cx="280.799" cy="171.766" r="6.087"/><circle class="cls-9" cx="65.696" cy="171.766" r="3.06"/><circle class="cls-9" cx="76.816" cy="171.766" r="3.06"/><circle class="cls-9" cx="87.936" cy="171.766" r="3.06"/></g></g></svg>