<svg xmlns="http://www.w3.org/2000/svg" viewBox="0 0 358.287 300.505"><defs><style>.cls-1,.cls-3,.cls-4{fill:none;stroke-linecap:round;stroke-linejoin:round;}.cls-1{stroke:#130f17;stroke-width:8px;}.cls-2{fill:#bb7159;}.cls-3,.cls-4{stroke:#423741;}.cls-3{stroke-width:3px;}.cls-4{stroke-width:5px;}.cls-5{fill:#423841;}</style></defs><title>Eaglesoft</title><g id="Layer_2" data-name="Layer 2"><g id="Eagle_Soft_Icon" data-name="Eagle Soft Icon"><rect class="cls-1" x="4" y="39.354" width="26.088" height="60.328" rx="7.309"/><path class="cls-2" d="M60.29,144.775l100.3-100.3L249,77.5V224.208H130.472Zm119.193-40.036c-4.8-.748-8.928-3.793-13.611-5.076a20.32,20.32,0,0,0-18.129,4.144,22.292,22.292,0,0,0-7.656,17.09c.14,11.823,9.061,21.668,11.958,33.131,2.071,8.192.97,16.812,1.509,25.245a41.356,41.356,0,0,0,1.6,9.231,4.173,4.173,0,0,0,8.165-.989,60.552,60.552,0,0,1,4.625-20.321,11.082,11.082,0,0,1,5.549-5.882c6.87-3.089,12.348,3.318,14.862,9.37a48.252,48.252,0,0,1,3.621,16.5,4.18,4.18,0,0,0,7.849,1.88,37.458,37.458,0,0,0,4.572-15.549c.365-5.68-.556-11.53,1.075-16.984,1.021-3.416,2.986-6.456,4.826-9.51,4.062-6.741,7.678-13.949,8.78-21.741s-.637-16.31-6.106-21.968c-4.109-4.25-11.027-6.741-16.86-5.069C189.815,100.044,187.226,105.946,179.483,104.739Z"/><path class="cls-1" d="M353.2,283.963l-4.985,8.56a8.014,8.014,0,0,1-11.087,2.816l-71.368-43.371a11.594,11.594,0,0,0-6.049-1.687l-131.312.31a22.815,22.815,0,0,1-17.25-7.819L21.341,140.3a7.694,7.694,0,0,1,.737-10.877l8.248-7.172a7.783,7.783,0,0,1,10.982.739l85.371,97.666a11.2,11.2,0,0,0,8.46,3.829l129.878-.314a22.85,22.85,0,0,1,12.055,3.405L350.5,273.12A8.013,8.013,0,0,1,353.2,283.963Z"/><path class="cls-3" d="M166.2,111.818a21.587,21.587,0,0,0,28.548-.264"/><path class="cls-4" d="M179.483,104.739c-4.8-.748-8.928-3.793-13.611-5.076a20.32,20.32,0,0,0-18.129,4.144,22.292,22.292,0,0,0-7.656,17.09c.14,11.823,9.061,21.668,11.958,33.131,2.071,8.192.97,16.812,1.509,25.245a41.356,41.356,0,0,0,1.6,9.231,4.173,4.173,0,0,0,8.165-.989,60.552,60.552,0,0,1,4.625-20.321,11.082,11.082,0,0,1,5.549-5.882c6.87-3.089,12.348,3.318,14.862,9.37a48.252,48.252,0,0,1,3.621,16.5,4.18,4.18,0,0,0,7.849,1.88,37.458,37.458,0,0,0,4.572-15.549c.365-5.68-.556-11.53,1.075-16.984,1.021-3.416,2.986-6.456,4.826-9.51,4.062-6.741,7.678-13.949,8.78-21.741s-.637-16.31-6.106-21.968c-4.109-4.25-11.027-6.741-16.86-5.069C189.815,100.044,187.226,105.946,179.483,104.739Z"/><path class="cls-5" d="M187.425,298H140.463c-3.173,0-5.9-1.048-6.513-2.5l-12.63-30.019c-.806-1.915,2.334-3.7,6.513-3.7h68.778c4.04,0,7.143,1.67,6.571,3.537L194,295.339C193.53,296.866,190.729,298,187.425,298Z"/><line class="cls-1" x1="17.044" y1="99.682" x2="26.165" y2="125.885"/><path class="cls-1" d="M253.464,56.724a47.25,47.25,0,0,0-22.816-40.472q-.46-.279-.927-.547-1.447-.832-2.957-1.564a47.326,47.326,0,0,0-66.375,30.747L248.7,77.444A47.106,47.106,0,0,0,253.464,56.724Z"/><path class="cls-1" d="M227.163,14.12h0A34.549,34.549,0,0,1,251.594,4h19.845a34.551,34.551,0,0,1,34.55,34.55V245.512"/></g></g></svg>