<svg xmlns="http://www.w3.org/2000/svg" viewBox="0 0 341.12 213.196"><defs><style>.cls-1,.cls-3{fill:none;stroke-linecap:round;stroke-linejoin:round;}.cls-1{stroke:#637b8b;stroke-width:3px;}.cls-2{fill:#637b8b;}.cls-3{stroke:#130f17;stroke-width:8px;}.cls-4{fill:#bc7259;}.cls-5{fill:#637a8c;}</style></defs><title>IT Tools</title><g id="Layer_2" data-name="Layer 2"><g id="IT_TOOLS_Icon" data-name="IT TOOLS Icon"><polyline class="cls-1" points="238.212 53.338 271 53.338 287 37.338 309 37.338"/><polyline class="cls-1" points="268.212 104.193 307 104.193 315.073 112.265 338 112.265"/><polyline class="cls-1" points="244.212 172.012 279 172.012 295.163 188.175 311 188.175"/><polyline class="cls-1" points="95.212 30.924 73 30.924 56.207 14.131 18 14.131"/><polyline class="cls-1" points="82.212 91.403 39 91.403 22.533 107.871 3 107.871"/><polyline class="cls-1" points="87 172.338 64 172.338 52 184.338 24 184.338"/><circle class="cls-2" cx="311.06" cy="188.398" r="3.06"/><circle class="cls-2" cx="24.06" cy="184.398" r="3.06"/><circle class="cls-2" cx="3.06" cy="107.398" r="3.06"/><circle class="cls-2" cx="18.06" cy="14.398" r="3.06"/><circle class="cls-2" cx="338.06" cy="112.398" r="3.06"/><circle class="cls-2" cx="309.06" cy="37.398" r="3.06"/><path class="cls-3" d="M192.29,201.6l-.982-13.907a5.219,5.219,0,0,1,3.408-5.188,80.881,80.881,0,0,0,13.4-6.711,5.314,5.314,0,0,1,6.253.426l10.488,9.1a5.066,5.066,0,0,0,7.156-.5l20-23.04a5.066,5.066,0,0,0-.505-7.156l-10.491-9.155a5.148,5.148,0,0,1-1.246-6.084,82.4,82.4,0,0,0,4.71-14.207,5.267,5.267,0,0,1,4.709-4.107l13.856-.978a5.1,5.1,0,0,0,4.717-5.434L265.614,84.2a5.1,5.1,0,0,0-5.434-4.717l-13.856.978a5.331,5.331,0,0,1-5.239-3.4,80.793,80.793,0,0,0-6.66-13.405,5.224,5.224,0,0,1,.375-6.249l9.1-10.487a5.068,5.068,0,0,0-.5-7.157l-23.04-20a5.066,5.066,0,0,0-7.156.5l-9.1,10.487a5.224,5.224,0,0,1-6.134,1.25,80.671,80.671,0,0,0-14.207-4.71,5.333,5.333,0,0,1-4.107-4.709L178.672,8.73a5.1,5.1,0,0,0-5.434-4.717l-30.453,2.15a5.1,5.1,0,0,0-4.717,5.434l.978,13.856a5.283,5.283,0,0,1-3.354,5.235,81.293,81.293,0,0,0-13.454,6.663,5.151,5.151,0,0,1-6.2-.378l-10.538-9.1a5.068,5.068,0,0,0-7.157.506l-20,23.039a5.068,5.068,0,0,0,.506,7.157l10.487,9.1a5.315,5.315,0,0,1,1.3,6.131,85.15,85.15,0,0,0-4.762,14.21,5.221,5.221,0,0,1-4.658,4.1l-13.906.982a5.1,5.1,0,0,0-4.718,5.434l2.151,30.453a5.1,5.1,0,0,0,5.434,4.717l13.906-.982a5.16,5.16,0,0,1,5.189,3.408,87.023,87.023,0,0,0,6.71,13.4,5.236,5.236,0,0,1-.43,6.2l-9.1,10.538a5.068,5.068,0,0,0,.5,7.157l23.04,20a5.068,5.068,0,0,0,7.157-.5l9.155-10.491a5.235,5.235,0,0,1,6.08-1.3,81.366,81.366,0,0,0,14.261,4.757,5.177,5.177,0,0,1,4.053,4.662l.982,13.907a5.1,5.1,0,0,0,5.433,4.717l30.453-2.15A5.1,5.1,0,0,0,192.29,201.6Z"/><path class="cls-4" d="M210.228,164.065l-43.041-43.042a6.982,6.982,0,0,1-2.045-4.937v-2.243a.4.4,0,0,0-.688-.285l-.756.756a2.042,2.042,0,0,1-2.887,0h0a2.04,2.04,0,0,1,0-2.887l2.092-2.092L121.872,68.3a7.183,7.183,0,0,0-5.076-2.1h-1.977l-6.364-12.728,3.241-3.241L124.424,56.6v1.976a7.183,7.183,0,0,0,2.1,5.077l41.031,41.03,2.092-2.091a2.04,2.04,0,0,1,2.887,0h0a2.042,2.042,0,0,1,0,2.887l-.756.756a.4.4,0,0,0,.285.688h2.243a6.987,6.987,0,0,1,4.938,2.045l43.041,43.041a7.028,7.028,0,0,1,0,9.938l-2.122,2.122A7.028,7.028,0,0,1,210.228,164.065Z"/><path class="cls-5" d="M109.289,132.513c-4.117,2.636-6.067,6.417-7.368,10.657a2.39,2.39,0,0,0,1.715,3.029l.975.238a2.369,2.369,0,0,0,1.845-.307l11.351-7.269,12.879,6.667.668,14.487-11.541,7.39a2.377,2.377,0,0,0-.946,1.176h0a2.381,2.381,0,0,0,2,3.193c4.155.413,8.381.2,12.147-2.208,5.612-3.594,10.328-6.222,12.564-12.778a94.657,94.657,0,0,1,16.08-28.4l24.4-30.451a23.3,23.3,0,0,1,19.483-8.572c5.8.3,11.279-3.889,16.525-7.218,3.9-2.472,5.781-5.966,7.135-9.9a2.386,2.386,0,0,0-1.661-3.111l-.2-.05a2.372,2.372,0,0,0-1.845.3l-11.385,7.224-12.851-6.721L200.655,55.4,212.2,48.074a2.374,2.374,0,0,0,.969-1.219l.284-.81a2.378,2.378,0,0,0-1.926-3.143c-4.435-.6-9-.465-13.033,2.1-5.627,3.571-10.384,5.869-12.643,12.466a98.389,98.389,0,0,1-16.7,29.415l-23.658,29.506a22.3,22.3,0,0,1-19.4,8.578C120.051,124.35,114.691,129.053,109.289,132.513Z"/></g></g></svg>