<svg xmlns="http://www.w3.org/2000/svg" viewBox="0 0 348.12 224.95"><defs><style>.cls-1,.cls-3,.cls-4{fill:none;stroke-linecap:round;stroke-linejoin:round;}.cls-1{stroke:#637b8b;stroke-width:3px;}.cls-2{fill:#637b8b;}.cls-3,.cls-4{stroke:#130f17;}.cls-3{stroke-width:8px;}.cls-4{stroke-width:5px;}.cls-5{fill:#bc7259;}</style></defs><title>Send</title><g id="Layer_2" data-name="Layer 2"><g id="SEND_Icon" data-name="SEND Icon"><polyline class="cls-1" points="291.103 36.371 301 36.371 317 20.371 339 20.371"/><polyline class="cls-1" points="278.212 117.226 317 117.226 325.073 125.299 345.103 125.299"/><polyline class="cls-1" points="251.212 185.045 286 185.045 302.163 201.208 318 201.208"/><polyline class="cls-1" points="102.212 26.958 80 26.958 63.207 10.165 25 10.165"/><polyline class="cls-1" points="71.103 90.437 39 90.437 22.533 106.904 3 106.904"/><polyline class="cls-1" points="71.103 151.371 53 151.371 41 163.371 13 163.371"/><circle class="cls-2" cx="318.06" cy="201.431" r="3.06"/><circle class="cls-2" cx="13.06" cy="163.431" r="3.06"/><circle class="cls-2" cx="3.06" cy="106.431" r="3.06"/><circle class="cls-2" cx="25.06" cy="10.431" r="3.06"/><circle class="cls-2" cx="345.06" cy="125.431" r="3.06"/><circle class="cls-2" cx="339.06" cy="20.431" r="3.06"/><path class="cls-3" d="M278.293,96.14a5.439,5.439,0,0,0-5.43-5.42l-14.8.01a5.691,5.691,0,0,1-5.321-4.01,84.9,84.9,0,0,0-3.359-9.07H246.3a20.34,20.34,0,1,1,0-40.68c.49,0,.97.02,1.451.05L234.973,24.26a5.4,5.4,0,0,0-7.65,0l-10.46,10.48a5.57,5.57,0,0,1-6.609.87,85.9,85.9,0,0,0-14.761-6.07,5.677,5.677,0,0,1-4.01-5.31l-.01-14.81A5.439,5.439,0,0,0,186.043,4L153.5,4.02a5.453,5.453,0,0,0-5.421,5.43l.01,14.81a5.622,5.622,0,0,1-3.95,5.31,86.8,86.8,0,0,0-14.81,6.09,5.487,5.487,0,0,1-6.56-.87l-10.53-10.46a5.393,5.393,0,0,0-7.64.01l-22.98,23a5.406,5.406,0,0,0,0,7.65l10.47,10.46a5.66,5.66,0,0,1,.93,6.62A90.109,90.109,0,0,0,86.9,86.82a5.569,5.569,0,0,1-5.26,4.02l-14.86.01a5.437,5.437,0,0,0-5.42,5.42l.021,32.54a5.445,5.445,0,0,0,5.43,5.42l14.859-.01a5.5,5.5,0,0,1,5.26,4.01,93.157,93.157,0,0,0,6.14,14.75,5.628,5.628,0,0,1,.34,4.55,16.57,16.57,0,0,1,2.18,8.25v.02c.2-.02.42-.02.63-.02a8.832,8.832,0,0,1,8.83,8.83v.08a18.347,18.347,0,0,1,26.2,15.54,87.826,87.826,0,0,0,12.979,5.18,5.52,5.52,0,0,1,3.97,5.26l.01,14.86a5.437,5.437,0,0,0,5.421,5.42l32.539-.02a5.437,5.437,0,0,0,5.42-5.42l-.01-14.86a5.581,5.581,0,0,1,4.01-5.27,86.769,86.769,0,0,0,14.75-6.13,5.673,5.673,0,0,1,6.62.91l10.47,10.47a5.4,5.4,0,0,0,7.65-.01l22.981-23.01a5.394,5.394,0,0,0-.011-7.64l-10.47-10.52a5.483,5.483,0,0,1-.87-6.56,87.835,87.835,0,0,0,6.06-14.76,5.626,5.626,0,0,1,5.32-4.01l14.8-.01a5.44,5.44,0,0,0,5.421-5.43Z"/><path class="cls-4" d="M160.2,178.39a64.034,64.034,0,1,1,73.91-74A63.915,63.915,0,0,1,160.2,178.39Z"/><path class="cls-5" d="M171.2,83.609l-39.694,22.923a1.806,1.806,0,0,0,.9,3.371H211.8a1.806,1.806,0,0,0,.9-3.371L173.006,83.609A1.806,1.806,0,0,0,171.2,83.609Z"/><rect class="cls-5" x="150.505" y="114.529" width="43.196" height="11.225" rx="1.861"/><rect class="cls-5" x="150.505" y="130.38" width="43.196" height="11.225" rx="1.877"/><path class="cls-3" d="M247.753,37.02a20.5,20.5,0,0,1,4.08.72,16.744,16.744,0,1,1,33.09-3.63v.03c.21-.02.42-.03.64-.03a8.841,8.841,0,0,1,8.83,8.84v.08a18.23,18.23,0,1,1,7.9,34.62H250.1"/><path class="cls-3" d="M93.413,157.53a16.739,16.739,0,0,0-31.31,8.25,16.067,16.067,0,0,0,.4,3.62,20.345,20.345,0,1,0-5.54,39.92h55.99a18.131,18.131,0,0,0,18.32-18.1c0-.33-.01-.66-.02-.99"/></g></g></svg>