<svg xmlns="http://www.w3.org/2000/svg" viewBox="0 0 326.207 323.236"><defs><style>.cls-1,.cls-3,.cls-4,.cls-5,.cls-7,.cls-9{fill:none;}.cls-1{stroke:#627b8b;}.cls-1,.cls-5,.cls-7,.cls-9{stroke-linecap:round;stroke-linejoin:round;}.cls-1,.cls-9{stroke-width:3px;}.cls-2{fill:#637b8b;}.cls-3,.cls-4{stroke:#141018;stroke-miterlimit:10;}.cls-3,.cls-5,.cls-7{stroke-width:5px;}.cls-4{stroke-width:8px;}.cls-5{stroke:#423841;}.cls-6{fill:#423741;}.cls-7,.cls-9{stroke:#bb7159;}.cls-8{fill:#423841;}</style></defs><title>IOS 17</title><g id="Layer_2" data-name="Layer 2"><g id="_8th" data-name="8th"><polyline class="cls-1" points="251.549 270.505 273.134 270.505 285.728 283.099 323.147 283.099"/><polyline class="cls-1" points="128.417 278.847 107.236 300.029 3.06 300.029"/><polyline class="cls-1" points="182.538 300.95 201.765 320.176 282.19 320.176"/><polyline class="cls-1" points="51.633 233.712 43.911 225.989 18.19 225.989"/><circle class="cls-2" cx="323.147" cy="283.099" r="3.06"/><circle class="cls-2" cx="18.19" cy="225.989" r="3.06"/><circle class="cls-2" cx="3.06" cy="300.029" r="3.06"/><circle class="cls-2" cx="282.19" cy="320.176" r="3.06"/><path class="cls-3" d="M241.059,83.555A109.415,109.415,0,1,1,107.664,66.819,109.514,109.514,0,0,1,241.059,83.555Z"/><path class="cls-4" d="M303.582,161.037a141.8,141.8,0,0,1-2.4,26.053c-5.41,1.412-11.477,2.77-18.31,4.019a121.641,121.641,0,0,1-13.6,32.875c4.063,5.881,7.491,11.258,10.371,16.186q-1.954,2.859-4.074,5.629a142.555,142.555,0,0,1-27.137,27.148q-2.776,2.12-5.629,4.074c-4.928-2.88-10.3-6.319-16.186-10.381a122.093,122.093,0,0,1-32.865,13.6h-.01c-1.26,6.845-2.618,12.912-4.02,18.311a142.725,142.725,0,0,1-52.106,0c-1.4-5.388-2.748-11.455-4.019-18.278a121.915,121.915,0,0,1-32.908-13.6c-5.859,4.052-11.236,7.469-16.153,10.349A142.79,142.79,0,0,1,47.694,240.17c2.87-4.895,6.286-10.261,10.317-16.109A122.314,122.314,0,0,1,44.354,191.1c-6.789-1.26-12.835-2.607-18.2-4.008a142.671,142.671,0,0,1,0-52.1c5.366-1.4,11.39-2.748,18.179-4.008A121.747,121.747,0,0,1,57.868,98.154c.033-.065.077-.12.11-.186C53.959,92.131,50.553,86.8,47.694,81.9a142.52,142.52,0,0,1,36.841-36.84c4.9,2.869,10.228,6.264,16.065,10.283.055-.033.12-.077.186-.11A121.712,121.712,0,0,1,133.618,41.7c1.249-6.779,2.6-12.813,4-18.179a142.667,142.667,0,0,1,52.106,0c1.4,5.366,2.749,11.411,4.009,18.2a122.065,122.065,0,0,1,32.952,13.656c5.848-4.03,11.214-7.447,16.12-10.316a142.5,142.5,0,0,1,36.84,36.84c-2.869,4.917-6.3,10.294-10.338,16.153A121.469,121.469,0,0,1,282.9,130.975c6.822,1.26,12.9,2.607,18.288,4.019A141.592,141.592,0,0,1,303.582,161.037Z"/><path class="cls-5" d="M174.69,230.177a15.978,15.978,0,1,1-21.944-.052"/><line class="cls-5" x1="163.69" y1="235.766" x2="163.69" y2="221.727"/><line class="cls-5" x1="163.618" y1="88.897" x2="163.69" y2="65.157"/><line class="cls-5" x1="91.56" y1="161.1" x2="67.821" y2="161.027"/><line class="cls-5" x1="235.821" y1="160.955" x2="259.56" y2="161.027"/><circle class="cls-6" cx="223.139" cy="220.373" r="5.4"/><circle class="cls-6" cx="223.036" cy="101.579" r="5.4"/><circle class="cls-6" cx="104.242" cy="101.681" r="5.4"/><circle class="cls-6" cx="104.345" cy="220.475" r="5.4"/><circle class="cls-6" cx="131.478" cy="83.449" r="3.06"/><circle class="cls-6" cx="86.057" cy="128.949" r="3.06"/><circle class="cls-6" cx="86.112" cy="193.239" r="3.06"/><circle class="cls-6" cx="131.612" cy="238.661" r="3.06"/><circle class="cls-6" cx="195.903" cy="238.605" r="3.06"/><circle class="cls-6" cx="241.324" cy="193.105" r="3.06"/><circle class="cls-6" cx="241.269" cy="128.815" r="3.06"/><circle class="cls-6" cx="195.124" cy="83.66" r="3.06"/><line class="cls-7" x1="119.572" y1="117.054" x2="150.33" y2="147.812"/><path class="cls-8" d="M192.842,161.1a29.224,29.224,0,1,1-29.224-29.225A29.224,29.224,0,0,1,192.842,161.1Zm-10.654,10.231a10,10,0,0,1-3.042-2,9.6,9.6,0,0,1,1.862-15.39,10.618,10.618,0,0,0-8.317-4.38,12.182,12.182,0,0,0-5,.888,19.839,19.839,0,0,1-3.679,1.15,13.47,13.47,0,0,1-3.318-.976,12.741,12.741,0,0,0-4.183-.974,10.773,10.773,0,0,0-5.408,1.526,11.206,11.206,0,0,0-4,4.047,14.54,14.54,0,0,0-1.91,7.609,24.471,24.471,0,0,0,1.413,7.964,26.346,26.346,0,0,0,3.364,6.683,22.659,22.659,0,0,0,3.182,3.806,5.555,5.555,0,0,0,4,1.768,10.755,10.755,0,0,0,3.455-.909,10.724,10.724,0,0,1,4-.859,10.377,10.377,0,0,1,3.888.859,9.791,9.791,0,0,0,3.611.863,5.9,5.9,0,0,0,3.909-1.722,21.551,21.551,0,0,0,3.042-3.676,23.859,23.859,0,0,0,2.361-4.246Q181.823,172.391,182.188,171.331Zm-9.25-31.313a8.1,8.1,0,0,0-.046-.878,9.25,9.25,0,0,0-3.552,1.006,9.806,9.806,0,0,0-3.1,2.33,9.627,9.627,0,0,0-2.548,6.211,6.9,6.9,0,0,0,.051.832c2.532.206,4.866-1.1,6.8-3.355a9.372,9.372,0,0,0,2.4-6.146Z"/><path class="cls-9" d="M40.225,62.815A36.767,36.767,0,0,1,65.478,37.562"/><path class="cls-9" d="M22.013,56.728A56,56,0,0,1,59.392,19.35"/><path class="cls-9" d="M4.163,50.763A74.844,74.844,0,0,1,53.426,1.5"/><path class="cls-9" d="M288.154,62.815A36.767,36.767,0,0,0,262.9,37.562"/><path class="cls-9" d="M306.366,56.728A56,56,0,0,0,268.987,19.35"/><path class="cls-9" d="M324.216,50.763A74.844,74.844,0,0,0,274.953,1.5"/></g></g></svg>