<svg xmlns="http://www.w3.org/2000/svg" viewBox="0 0 340.19 231.415"><defs><style>.cls-1,.cls-3,.cls-4,.cls-5,.cls-6{fill:none;stroke-linecap:round;stroke-linejoin:round;}.cls-1{stroke:#627b8b;}.cls-1,.cls-6{stroke-width:3px;}.cls-2{fill:#637b8b;}.cls-3,.cls-4{stroke:#141018;}.cls-3{stroke-width:8px;}.cls-4,.cls-5{stroke-width:5px;}.cls-5{stroke:#423841;}.cls-6{stroke:#bb7159;}</style></defs><title>Commodore</title><g id="Layer_2" data-name="Layer 2"><g id="_10th" data-name="10th"><polyline class="cls-1" points="191.799 30.739 212.93 30.739 227.409 16.259 316.625 16.259"/><polyline class="cls-1" points="191.255 65.739 237.482 65.739 248.166 76.424 281.017 76.424"/><polyline class="cls-1" points="41.147 75.739 29.799 75.739 20.603 66.543 3.06 66.543"/><polyline class="cls-1" points="74.408 190.391 57.598 207.201 8.669 207.201"/><polyline class="cls-1" points="106.886 190.391 144.849 228.354 299.506 228.354"/><polyline class="cls-1" points="299.506 190.391 278.618 211.279 184.756 211.279 164.529 191.052"/><polyline class="cls-1" points="273.582 108.391 285.204 96.769 336.19 96.769"/><circle class="cls-2" cx="299.506" cy="228.354" r="3.06"/><circle class="cls-2" cx="336.19" cy="96.769" r="3.06"/><circle class="cls-2" cx="281.017" cy="76.424" r="3.06"/><circle class="cls-2" cx="3.06" cy="66.543" r="3.06"/><circle class="cls-2" cx="316.625" cy="16.259" r="3.06"/><circle class="cls-2" cx="8.669" cy="207.201" r="3.06"/><path class="cls-3" d="M240.234,108.391H321.8a14.391,14.391,0,0,1,14.391,14.391v60.37a7.239,7.239,0,0,1-7.239,7.239h-95.87a7.239,7.239,0,0,1-7.239-7.239v-60.37A14.391,14.391,0,0,1,240.234,108.391Z"/><rect class="cls-3" x="41.147" y="4" width="150.652" height="130.043" rx="14.283"/><rect class="cls-4" x="57.614" y="18.214" width="117.718" height="101.615" rx="7.094"/><path class="cls-3" d="M31.364,134.043H201.582a14.478,14.478,0,0,1,14.478,14.478v34.63a7.239,7.239,0,0,1-7.239,7.239H24.125a7.239,7.239,0,0,1-7.239-7.239v-34.63A14.478,14.478,0,0,1,31.364,134.043Z"/><line class="cls-4" x1="16.886" y1="160.696" x2="216.06" y2="160.696"/><line class="cls-5" x1="134.227" y1="41.049" x2="134.227" y2="57.469"/><line class="cls-5" x1="98.838" y1="41.049" x2="98.838" y2="57.469"/><path class="cls-5" d="M143.291,87.628c-5.807,5.821-15.642,9.649-26.8,9.649s-21-3.832-26.808-9.66"/><line class="cls-5" x1="148.983" y1="73.673" x2="156.321" y2="73.673"/><line class="cls-5" x1="77.06" y1="73.673" x2="84.398" y2="73.673"/><rect class="cls-6" x="241.103" y="119.533" width="79.826" height="15.511" rx="3.5"/><rect class="cls-6" x="241.103" y="146.707" width="79.826" height="31.163" rx="7.429"/><line class="cls-6" x1="241.103" y1="165.886" x2="320.93" y2="165.886"/><path class="cls-6" d="M262.527,165.886l1.98-3.885a6.948,6.948,0,0,1,6.192-3.794h20.684a6.949,6.949,0,0,1,6.224,3.857l1.9,3.822"/><rect class="cls-6" x="177.94" y="143.478" width="21.717" height="9.587" rx="3.367"/><rect class="cls-6" x="131.788" y="143.576" width="37.37" height="9.587" rx="3.353"/><rect class="cls-6" x="33.06" y="143.576" width="89.217" height="9.587" rx="3.391"/></g></g></svg>