<svg xmlns="http://www.w3.org/2000/svg" viewBox="0 0 353.729 236.89"><defs><style>.cls-1,.cls-3,.cls-4,.cls-5,.cls-8,.cls-9{fill:none;}.cls-1{stroke:#627b8b;}.cls-1,.cls-3,.cls-4,.cls-5,.cls-7,.cls-8,.cls-9{stroke-linecap:round;stroke-linejoin:round;}.cls-1,.cls-5,.cls-7,.cls-8{stroke-width:3px;}.cls-2{fill:#637b8b;}.cls-3,.cls-4,.cls-5{stroke:#141018;}.cls-3{stroke-width:8px;}.cls-4,.cls-9{stroke-width:5px;}.cls-6{fill:#130f17;}.cls-7{fill:#bb7159;}.cls-7,.cls-8{stroke:#bb7159;}.cls-9{stroke:#423841;}</style></defs><title>Power Monitoring</title><g id="Layer_2" data-name="Layer 2"><g id="_11th" data-name="11th"><polyline class="cls-1" points="190.234 219.809 204.256 233.831 320.538 233.831"/><polyline class="cls-1" points="307.843 168.809 317.799 168.809 327.777 178.787 350.669 178.787"/><polyline class="cls-1" points="307.843 64.331 318.549 64.331 331.603 51.276 339.962 51.276"/><polyline class="cls-1" points="207.843 27.154 196.043 15.354 114.712 15.354 102.418 3.06 37.756 3.06"/><polyline class="cls-1" points="48.191 57.804 38.408 57.804 29.231 66.98 3.06 66.98"/><polyline class="cls-1" points="48.191 147.679 25.887 147.679 16.495 138.287 9.582 138.287"/><circle class="cls-2" cx="320.538" cy="233.831" r="3.06"/><circle class="cls-2" cx="350.669" cy="178.787" r="3.06"/><circle class="cls-2" cx="9.582" cy="138.287" r="3.06"/><circle class="cls-2" cx="37.756" cy="3.06" r="3.06"/><circle class="cls-2" cx="339.962" cy="51.276" r="3.06"/><circle class="cls-2" cx="3.06" cy="66.98" r="3.06"/><rect class="cls-3" x="48.191" y="27.154" width="259.651" height="159.655" rx="14.283"/><path class="cls-3" d="M271.582,219.809H84.452l3.761-9.159a14.254,14.254,0,0,1,13.186-8.841h153.41a14.256,14.256,0,0,1,13.275,9.06Z"/><polygon class="cls-3" points="225.408 201.809 130.626 201.809 134.369 186.809 221.84 186.809 225.408 201.809"/><line class="cls-4" x1="48.191" y1="158.331" x2="307.843" y2="158.331"/><circle class="cls-5" cx="280.799" cy="171.766" r="6.087"/><circle class="cls-6" cx="65.696" cy="171.766" r="3.06"/><circle class="cls-6" cx="76.816" cy="171.766" r="3.06"/><circle class="cls-6" cx="87.936" cy="171.766" r="3.06"/><polygon class="cls-7" points="176.784 109.915 191.345 83.439 169.178 83.439 213.302 43.528 198.89 69.726 221.214 69.726 176.784 109.915"/><polyline class="cls-8" points="176.784 109.915 168.447 101.578 147.581 122.444 139.666 114.529 109.646 144.548"/><polyline class="cls-9" points="109.646 43.528 109.646 144.548 246.668 144.548"/></g></g></svg>