<svg xmlns="http://www.w3.org/2000/svg" viewBox="0 0 325.424 330.278"><defs><style>.cls-1{fill:#bb7159;}.cls-1,.cls-2,.cls-3{stroke:#141018;}.cls-1,.cls-2,.cls-3,.cls-4,.cls-6{stroke-linecap:round;stroke-linejoin:round;}.cls-1,.cls-2{stroke-width:8px;}.cls-2,.cls-3,.cls-4,.cls-6{fill:none;}.cls-3,.cls-6{stroke-width:5px;}.cls-4{stroke:#627b8b;stroke-width:3px;}.cls-5{fill:#627b8b;}.cls-6{stroke:#423841;}</style></defs><title>Experimenting</title><g id="Layer_2" data-name="Layer 2"><g id="_12th" data-name="12th"><path class="cls-1" d="M218.928,311l-2.76,7.32a12.291,12.291,0,0,1-11.5,7.96H114.5a12.281,12.281,0,0,1-11.5-7.96l-2.76-7.32a23.513,23.513,0,0,1,5.38-24.91l21.99-21.99a47.743,47.743,0,0,0,13.35-26.04H178.2a47.824,47.824,0,0,0,13.36,26.04l21.99,21.99A23.513,23.513,0,0,1,218.928,311Z"/><path class="cls-2" d="M183.318,188.458a7.3,7.3,0,0,1-.97,3.62l-1.62,2.8a23.568,23.568,0,0,0-3.16,11.791v23.67a47.3,47.3,0,0,0,.63,7.72h-37.24a47.3,47.3,0,0,0,.63-7.72v-23.67a23.558,23.558,0,0,0-3.15-11.791l-1.62-2.8a7.248,7.248,0,0,1,6.28-10.87h32.97a7.255,7.255,0,0,1,7.25,7.25Z"/><line class="cls-3" x1="178.608" y1="238.058" x2="178.198" y2="238.058"/><polyline class="cls-4" points="222.778 54.81 222.778 47.195 209.221 33.638 209.221 12.467"/><polyline class="cls-4" points="261.453 72.056 261.453 37.79 269.756 29.487 269.756 3.271"/><polyline class="cls-4" points="246.776 126.792 246.776 145.706 262.842 161.773 262.842 239.619"/><polyline class="cls-4" points="123.283 131.04 123.283 159.086 110.998 171.371 110.998 209.358"/><polyline class="cls-4" points="74.277 72.056 42.973 72.056 29.654 58.737 3.06 58.737"/><polyline class="cls-4" points="265.605 105.039 282.451 105.039 293.002 115.59 322.364 115.59"/><polyline class="cls-4" points="84.649 121.976 68.118 121.976 54.246 135.848 24.19 135.848"/><circle class="cls-5" cx="262.842" cy="239.619" r="3.06"/><circle class="cls-5" cx="322.364" cy="115.59" r="3.06"/><circle class="cls-5" cx="269.756" cy="3.271" r="3.06"/><circle class="cls-5" cx="209.221" cy="12.467" r="3.06"/><circle class="cls-5" cx="3.06" cy="58.737" r="3.06"/><circle class="cls-5" cx="24.19" cy="135.848" r="3.06"/><circle class="cls-5" cx="110.998" cy="209.358" r="3.06"/><path class="cls-2" d="M267.578,92.91a38.2,38.2,0,0,1-38.59,38.13h-6.21a21.72,21.72,0,0,0-43.44,0H111a42.865,42.865,0,1,1,11.66-84.12,34.914,34.914,0,0,1-.84-7.63,35.285,35.285,0,1,1,70.57,0v.05c.44-.04.89-.05,1.34-.05a18.614,18.614,0,0,1,18.61,18.61v.17a38.619,38.619,0,0,1,55.24,34.84Z"/><path class="cls-2" d="M222.778,131.04a21.75,21.75,0,0,1-27.3,21,13.752,13.752,0,0,0-13.4-10.64h-.11a21.72,21.72,0,1,1,40.81-10.36Z"/><path class="cls-2" d="M195.838,155.15a13.755,13.755,0,1,1-13.87-13.75h.11a13.752,13.752,0,0,1,13.4,10.64A13.3,13.3,0,0,1,195.838,155.15Z"/><path class="cls-6" d="M144.093,89.443c0,7.322,7.555,13.258,16.875,13.258s16.874-5.936,16.875-13.258c0-18.574-30.834-7.976-33.6-24.663a11.4,11.4,0,0,1-.146-1.853c0-7.323,7.555-13.258,16.875-13.258s16.875,5.935,16.875,13.258"/><line class="cls-6" x1="168.028" y1="41.536" x2="168.028" y2="111.056"/><line class="cls-6" x1="154.209" y1="41.536" x2="154.209" y2="111.056"/></g></g></svg>