<svg xmlns="http://www.w3.org/2000/svg" viewBox="0 0 352.816 339.12"><defs><style>.cls-1,.cls-3,.cls-4,.cls-5,.cls-6{fill:none;stroke-linecap:round;stroke-linejoin:round;}.cls-1{stroke:#627b8b;stroke-width:3px;}.cls-2{fill:#627b8b;}.cls-3,.cls-4{stroke:#141018;}.cls-3{stroke-width:8px;}.cls-4,.cls-5,.cls-6{stroke-width:5px;}.cls-5{stroke:#423841;}.cls-6{stroke:#bb7159;}</style></defs><title>Phishing Email</title><g id="Layer_2" data-name="Layer 2"><g id="_14th" data-name="14th"><polyline class="cls-1" points="122.408 56.158 122.408 44.538 110.277 32.408 110.277 3.06"/><polyline class="cls-1" points="226.364 56.158 226.364 37.495 232.166 31.693 232.166 20.538"/><polyline class="cls-1" points="278.37 110.017 294.973 110.017 309.321 95.669 329.669 95.669"/><polyline class="cls-1" points="64.657 132.971 48.973 132.971 39.713 123.711 3.06 123.711"/><polyline class="cls-1" points="81.526 206.11 63.75 206.11 50.799 219.06 20.799 219.06"/><polyline class="cls-1" points="145.565 272.973 145.565 288.19 136.139 297.617 136.139 335.669"/><polyline class="cls-1" points="195.142 273.589 195.142 307.495 202.275 314.628 202.275 323.408"/><polyline class="cls-1" points="235.807 244.911 235.807 255.06 245.042 264.295 245.042 291.843"/><line class="cls-1" x1="319.625" y1="183.793" x2="349.756" y2="183.793"/><circle class="cls-2" cx="245.042" cy="291.843" r="3.06"/><circle class="cls-2" cx="349.756" cy="183.793" r="3.06"/><circle class="cls-2" cx="329.669" cy="95.669" r="3.06"/><circle class="cls-2" cx="232.166" cy="20.538" r="3.06"/><circle class="cls-2" cx="110.277" cy="3.06" r="3.06"/><circle class="cls-2" cx="3.06" cy="123.711" r="3.06"/><circle class="cls-2" cx="20.799" cy="219.06" r="3.06"/><circle class="cls-2" cx="202.275" cy="323.93" r="3.06"/><circle class="cls-2" cx="136.139" cy="336.06" r="3.06"/><path class="cls-3" d="M248.314,228.878c-16.136,24.409-40.564,44.214-77.254,52.4C37.756,251.538,66.321,68.408,66.321,68.408c74.739,0,104.739-55.565,104.739-55.565s30,55.565,104.739,55.565a314.314,314.314,0,0,1,.434,77.159"/><path class="cls-4" d="M214.753,227.672c-11.141,10.218-25.423,18.135-43.693,22.211-100.01-22.312-80.508-159.7-80.508-159.7,47.268,0,80.508-38.009,80.508-38.009s31.166,38.009,80.508,38.009a236.238,236.238,0,0,1-.294,56.606"/><path class="cls-5" d="M189.712,190.58h-57.57a29.555,29.555,0,1,1,8.04-58,23.953,23.953,0,0,1-.58-5.26,24.33,24.33,0,0,1,48.66,0v.04c.3-.03.61-.04.92-.04a12.831,12.831,0,0,1,12.83,12.83v.12a26.651,26.651,0,0,1,31.755,6.786"/><path class="cls-6" d="M301.625,147.06H196.951a7.239,7.239,0,0,0-7.239,7.239v65.837a7.533,7.533,0,0,0,7.533,7.533H312.386a7.239,7.239,0,0,0,7.239-7.239V158.173a3.815,3.815,0,0,0-5.938-3.17l-52.2,34.965a14.079,14.079,0,0,1-16.392-.518l-40.634-31.1"/></g></g></svg>