<svg xmlns="http://www.w3.org/2000/svg" viewBox="0 0 352.816 339.12"><defs><style>.cls-1,.cls-2,.cls-4,.cls-5,.cls-6{fill:none;}.cls-1{stroke:#423841;}.cls-1,.cls-2,.cls-4,.cls-5,.cls-6,.cls-7{stroke-linecap:round;stroke-linejoin:round;}.cls-1,.cls-5,.cls-6,.cls-7{stroke-width:5px;}.cls-2{stroke:#627b8b;stroke-width:3px;}.cls-3{fill:#627b8b;}.cls-4,.cls-5{stroke:#141018;}.cls-4{stroke-width:8px;}.cls-6,.cls-7{stroke:#bb7159;}.cls-7{fill:#bb7159;}</style></defs><title>Protect Your Business</title><g id="Layer_2" data-name="Layer 2"><g id="_15th" data-name="15th"><circle class="cls-1" cx="171.57" cy="135.861" r="17.587"/><path class="cls-1" d="M180.755,200.85c-16.115,2.106-36.9-1.528-36.9-10.9a27.721,27.721,0,0,1,54.872-5.586"/><circle class="cls-1" cx="217.083" cy="124.073" r="11.217"/><path class="cls-1" d="M203.181,163.308c-2.321-1.177-3.777-2.757-3.777-4.738a17.694,17.694,0,0,1,20.5-17.454"/><path class="cls-1" d="M233.292,151.5a17.614,17.614,0,0,1,1.469,7.066c0,4.718-8.256,7.156-16.789,7.314"/><circle class="cls-1" cx="126.091" cy="124.073" r="11.217"/><path class="cls-1" d="M143.77,158.57c0,9.764-35.357,9.764-35.357,0a17.679,17.679,0,0,1,35.357,0Z"/><polyline class="cls-2" points="122.408 56.158 122.408 44.538 110.277 32.408 110.277 3.06"/><polyline class="cls-2" points="226.364 56.158 226.364 37.495 232.166 31.693 232.166 20.538"/><polyline class="cls-2" points="278.37 110.017 294.973 110.017 309.321 95.669 329.669 95.669"/><polyline class="cls-2" points="64.657 132.971 48.973 132.971 39.713 123.711 3.06 123.711"/><polyline class="cls-2" points="81.526 206.11 63.75 206.11 50.799 219.06 20.799 219.06"/><polyline class="cls-2" points="145.565 272.973 145.565 288.19 136.139 297.617 136.139 335.669"/><polyline class="cls-2" points="195.142 276.44 195.142 307.495 202.275 314.628 202.275 323.408"/><line class="cls-2" x1="245.042" y1="278.056" x2="245.042" y2="291.843"/><polyline class="cls-2" points="275.073 171.221 304.364 171.221 316.936 183.793 349.756 183.793"/><circle class="cls-3" cx="245.042" cy="291.843" r="3.06"/><circle class="cls-3" cx="349.756" cy="183.793" r="3.06"/><circle class="cls-3" cx="329.669" cy="95.669" r="3.06"/><circle class="cls-3" cx="232.166" cy="20.538" r="3.06"/><circle class="cls-3" cx="110.277" cy="3.06" r="3.06"/><circle class="cls-3" cx="3.06" cy="123.711" r="3.06"/><circle class="cls-3" cx="20.799" cy="219.06" r="3.06"/><circle class="cls-3" cx="202.275" cy="323.93" r="3.06"/><circle class="cls-3" cx="136.139" cy="336.06" r="3.06"/><path class="cls-4" d="M190.681,275.4a139.152,139.152,0,0,1-19.621,5.879C37.756,251.538,66.321,68.408,66.321,68.408c74.739,0,104.739-55.565,104.739-55.565s30,55.565,104.739,55.565c0,0,6.9,44.261-1.915,92.8"/><path class="cls-5" d="M250.157,154.43a168.642,168.642,0,0,1-7.727,30.076"/><path class="cls-5" d="M189.878,243.8a102.982,102.982,0,0,1-18.818,6.082c-100.01-22.312-80.508-159.7-80.508-159.7,47.268,0,80.508-38.009,80.508-38.009s31.166,38.009,80.508,38.009a234.09,234.09,0,0,1,.587,48.459"/><path class="cls-6" d="M193.189,274.871a10.6,10.6,0,0,0,7.588,3.185h75.26a10.892,10.892,0,0,0,10.892-10.892v-52.5"/><path class="cls-6" d="M180.755,198.23v-6.457a6.848,6.848,0,0,1,6.848-6.848H289.342a6.978,6.978,0,0,1,6.978,6.978v7.136a7.07,7.07,0,0,1-7.07,7.071h-99.1v61.315a10.6,10.6,0,0,0,3.043,7.446"/><path class="cls-6" d="M249.565,154.062a21.511,21.511,0,0,1,10.494,18.486v5.725"/><path class="cls-6" d="M217.016,178.273v-5.725a21.527,21.527,0,0,1,32.549-18.486"/><path class="cls-6" d="M203.479,162.229A36.565,36.565,0,0,0,202,172.548v5.725"/><path class="cls-6" d="M275.073,178.273v-5.725a36.541,36.541,0,0,0-71.594-10.319"/><path class="cls-7" d="M252.623,228.542a12.523,12.523,0,0,1-6.34,10.886,3.18,3.18,0,0,0-1.57,2.776v15.564a3.724,3.724,0,0,1-3.724,3.724h-2.345a3.841,3.841,0,0,1-3.841-3.841V241.8a3.349,3.349,0,0,0-1.562-2.784,12.522,12.522,0,1,1,19.382-10.477Z"/></g></g></svg>