<svg xmlns="http://www.w3.org/2000/svg" viewBox="0 0 304.8 304.8"><defs><style>.cls-1,.cls-2,.cls-3,.cls-4{fill:none;}.cls-1{stroke:#627b8b;stroke-width:3px;}.cls-1,.cls-4{stroke-linecap:round;stroke-linejoin:round;}.cls-2,.cls-3{stroke:#141018;stroke-miterlimit:10;}.cls-2,.cls-4{stroke-width:5px;}.cls-3{stroke-width:8px;}.cls-4{stroke:#423841;}.cls-5{fill:#627b8b;}</style></defs><title>Being Small</title><g id="Layer_2" data-name="Layer 2"><g id="_1st" data-name="1st"><polyline class="cls-1" points="148.647 180.55 148.647 192.876 161.289 205.517 161.289 225.55"/><polyline class="cls-1" points="117.886 180.996 117.886 194.245 106.484 205.647 106.484 218.115"/><polyline class="cls-1" points="154.045 155.264 165.355 155.264 177.313 167.222 206.833 167.222"/><polyline class="cls-1" points="188.843 126.654 203.278 126.654 210.472 119.461 231.215 119.461"/><polyline class="cls-1" points="70.932 129.482 65.398 129.482 54.538 140.342 43.626 140.342"/><polyline class="cls-1" points="104.284 163.584 82.488 163.584 72.929 173.143 51.321 173.143"/><polyline class="cls-1" points="143.548 104.29 143.548 84.289 155.022 72.815 155.022 56.115"/><polyline class="cls-1" points="123.485 100.796 123.485 66.876 113.979 57.37 113.979 45.55"/><path class="cls-2" d="M202.428,61.009A99.909,99.909,0,1,1,80.62,45.727,100,100,0,0,1,202.428,61.009Z"/><path class="cls-3" d="M259.52,131.76a129.476,129.476,0,0,1-2.19,23.79c-4.94,1.29-10.48,2.53-16.72,3.67a111.1,111.1,0,0,1-12.42,30.02c3.71,5.37,6.84,10.28,9.47,14.78q-1.785,2.61-3.72,5.14a127.789,127.789,0,0,1-11.55,13.23,129.1,129.1,0,0,1-13.23,11.56q-2.535,1.935-5.14,3.72c-4.5-2.63-9.41-5.77-14.78-9.48a111.489,111.489,0,0,1-30.01,12.42h-.01c-1.15,6.25-2.39,11.79-3.67,16.72a130.311,130.311,0,0,1-47.58,0c-1.28-4.92-2.51-10.46-3.67-16.69a111.36,111.36,0,0,1-30.05-12.42c-5.35,3.7-10.26,6.82-14.75,9.45a130.405,130.405,0,0,1-33.64-33.65c2.62-4.47,5.74-9.37,9.42-14.71a111.681,111.681,0,0,1-12.47-30.1c-6.2-1.15-11.72-2.38-16.62-3.66a130.256,130.256,0,0,1,0-47.57c4.9-1.28,10.4-2.51,16.6-3.66A111.131,111.131,0,0,1,35.15,74.34c.03-.06.07-.11.1-.17-3.67-5.33-6.78-10.2-9.39-14.67A130.16,130.16,0,0,1,59.5,25.86c4.47,2.62,9.34,5.72,14.67,9.39.05-.03.11-.07.17-.1a111.131,111.131,0,0,1,29.98-12.36c1.14-6.19,2.37-11.7,3.65-16.6a130.311,130.311,0,0,1,47.58,0c1.28,4.9,2.51,10.42,3.66,16.62A111.487,111.487,0,0,1,189.3,35.28c5.34-3.68,10.24-6.8,14.72-9.42A130.16,130.16,0,0,1,237.66,59.5c-2.62,4.49-5.75,9.4-9.44,14.75a110.942,110.942,0,0,1,12.41,30.06c6.23,1.15,11.78,2.38,16.7,3.67A129.286,129.286,0,0,1,259.52,131.76Z"/><path class="cls-3" d="M286.99,256.18l-15.76,15.05-15.05,15.76-2.73-.74c-4.44-.46-7.79-1.31-12.08-6.43-15.35-18.33-29.04-40.63-32.21-45.87a129.1,129.1,0,0,0,13.23-11.56,127.789,127.789,0,0,0,11.55-13.23c5.22,3.15,27.54,16.86,45.88,32.21,5.12,4.29,5.97,7.64,6.43,12.08Z"/><line class="cls-3" x1="287.08" y1="256.52" x2="286.99" y2="256.18"/><line class="cls-3" x1="256.52" y1="287.08" x2="256.18" y2="286.99"/><path class="cls-3" d="M286.76,286.76c-13.36,13.35-24.19,14.93-31.18,13.7a5.733,5.733,0,0,1-3.09-9.61l3.69-3.86,15.05-15.76,15.76-15.05,3.86-3.69a5.735,5.735,0,0,1,9.61,3.1C301.69,262.57,300.11,273.4,286.76,286.76Z"/><circle class="cls-4" cx="131.06" cy="116.671" r="17.587"/><path class="cls-4" d="M158.778,170.758c0,15.308-55.436,15.308-55.436,0a27.718,27.718,0,0,1,55.436,0Z"/><circle class="cls-4" cx="176.572" cy="104.883" r="11.217"/><path class="cls-4" d="M194.251,139.38c0,9.764-35.357,9.764-35.357,0a17.679,17.679,0,0,1,35.357,0Z"/><circle class="cls-4" cx="85.581" cy="104.883" r="11.217"/><path class="cls-4" d="M103.259,139.38c0,9.764-35.356,9.764-35.356,0a17.678,17.678,0,0,1,35.356,0Z"/><circle class="cls-5" cx="154.968" cy="56.897" r="3.06"/><circle class="cls-5" cx="113.979" cy="45.55" r="3.06"/><circle class="cls-5" cx="43.626" cy="140.342" r="3.06"/><circle class="cls-5" cx="51.321" cy="173.143" r="3.06"/><circle class="cls-5" cx="106.484" cy="218.115" r="3.06"/><circle class="cls-5" cx="206.833" cy="167.222" r="3.06"/></g></g></svg>