<svg xmlns="http://www.w3.org/2000/svg" viewBox="0 0 227.652 357.203"><defs><style>.cls-1,.cls-2,.cls-3,.cls-4,.cls-5,.cls-6,.cls-7{fill:none;stroke-linecap:round;stroke-linejoin:round;}.cls-1,.cls-2{stroke:#bb7159;}.cls-1,.cls-5,.cls-6{stroke-width:3px;}.cls-2{stroke-width:2px;}.cls-3,.cls-4,.cls-5{stroke:#141018;}.cls-3{stroke-width:8px;}.cls-4,.cls-7{stroke-width:5px;}.cls-6{stroke:#627b8b;}.cls-7{stroke:#423841;}</style></defs><title>Remote Toolkit</title><g id="Layer_2" data-name="Layer 2"><g id="_2nd.1" data-name="2nd.1"><path class="cls-1" d="M131.11,259.332c1.736-1.736,3.277-2.665,7.288-2.665,5.267,0,8.217,3.839,9.489,9.538.456,2.044.767,4.075-.294,5.649-1.607,2.383-5.628,3.277-8.8,3.277-3.21,0-7.169-.968-8.784-3.4-1.034-1.558.123-3.453,1.444-4.99a5.235,5.235,0,0,1,3.057-1.564c1.957,0,1.761,1.443,2.984,1.443,2.372,0,2.617-4.353,2.617-4.353"/><rect class="cls-1" x="109.581" y="66.945" width="16.24" height="16.24"/><polygon class="cls-1" points="125.821 66.945 109.581 66.945 104.351 62.745 120.591 62.745 125.821 66.945"/><polygon class="cls-1" points="109.581 66.945 109.581 83.185 104.351 78.975 104.351 62.745 109.581 66.945"/><polyline class="cls-2" points="114.788 79.057 114.788 71.538 120.768 79.057 120.768 71.538"/><rect class="cls-1" x="174.865" y="120.286" width="21.13" height="21.13" rx="4.167" transform="translate(-38.214 169.445) rotate(-45)"/><line class="cls-1" x1="181.014" y1="120.326" x2="181.014" y2="135.286"/><line class="cls-1" x1="189.844" y1="126.449" x2="189.844" y2="141.399"/><line class="cls-1" x1="181.014" y1="130.851" x2="189.844" y2="130.851"/><path class="cls-1" d="M38.079,62.444a5.609,5.609,0,1,0-3.966,9.575,6.059,6.059,0,0,0,4.244-2.075,53.856,53.856,0,0,0,3.452-4.318c1.7-2.152,3.468-4.825,6.522-4.825a5.609,5.609,0,1,1-4.077,9.46"/><line class="cls-1" x1="47.27" y1="232.764" x2="47.27" y2="250.895"/><polyline class="cls-1" points="51.966 232.699 51.966 238.808 56.01 238.808 60.151 235.667"/><polyline class="cls-1" points="51.966 250.895 51.966 244.786 56.01 244.786 60.151 247.928"/><line class="cls-1" x1="42.836" y1="235.764" x2="42.836" y2="247.634"/><polyline class="cls-1" points="62.336 239.702 59.76 241.701 62.336 243.542"/><rect class="cls-3" x="8.402" y="4" width="210.771" height="349.203" rx="14.315"/><rect class="cls-4" x="23.379" y="18.767" width="180.818" height="286.348" rx="14.315"/><circle class="cls-5" cx="113.681" cy="33.709" r="6.405"/><circle class="cls-5" cx="113.788" cy="328.299" r="16.711"/><line class="cls-3" x1="223.652" y1="73.517" x2="223.652" y2="110.853"/><line class="cls-3" x1="4" y1="44.077" x2="4" y2="81.413"/><line class="cls-3" x1="4" y1="110.853" x2="4" y2="148.19"/><line class="cls-3" x1="4" y1="189.992" x2="4" y2="217.074"/><polyline class="cls-6" points="132.217 109.46 132.217 101.558 118.108 87.449 118.108 83.185"/><polyline class="cls-6" points="154.908 142.636 165.152 142.636 169.974 137.814 177.452 137.814"/><polyline class="cls-6" points="163 197.306 163 221.819 140.516 244.302 140.516 256.899"/><polyline class="cls-6" points="61.048 185.804 61.048 204.406 51.959 213.495 51.959 232.699"/><polyline class="cls-6" points="45.569 126.862 45.569 97.775 52.241 91.103 52.241 70.427"/><path class="cls-7" d="M69.114,156.549H83.561a4.994,4.994,0,0,0,4.995-4.994h0a2.5,2.5,0,0,0-2.5-2.5H68.935V144.6a7.491,7.491,0,0,0-7.491-7.491H45.48a6.866,6.866,0,0,0-6.867,6.867v22.207a8.918,8.918,0,0,0,8.918,8.918H79.637a8.919,8.919,0,0,0,8.919-8.918H48.78"/><path class="cls-7" d="M44.321,149.414H62.113a1.472,1.472,0,0,1,1.471,1.472h0a5.217,5.217,0,0,1-5.217,5.217H44.321"/><line class="cls-7" x1="62.336" y1="175.099" x2="62.336" y2="184.865"/><polyline class="cls-7" points="38.613 202.166 62.336 184.865 88.556 202.166"/><path class="cls-7" d="M45.569,131.042v-2.675a7.313,7.313,0,0,1,7.313-7.313h1.7a7.045,7.045,0,0,1,7.045,7.045v2.943"/><polyline class="cls-7" points="96.047 152.224 179.791 152.224 179.791 202.166"/><line class="cls-7" x1="136.581" y1="202.166" x2="136.581" y2="152.224"/><line class="cls-7" x1="179.791" y1="197.306" x2="137.049" y2="197.306"/><rect class="cls-7" x="96.047" y="109.46" width="58.861" height="33.176"/><line class="cls-7" x1="125.478" y1="152.224" x2="125.478" y2="142.636"/><line class="cls-7" x1="136.581" y1="166.166" x2="179.791" y2="166.166"/><line class="cls-7" x1="136.581" y1="182.34" x2="179.791" y2="182.34"/></g></g></svg>