<svg xmlns="http://www.w3.org/2000/svg" viewBox="0 0 339.903 316.708"><defs><style>.cls-1{fill:none;stroke:#627b8b;stroke-linecap:round;stroke-linejoin:round;stroke-width:3px;}.cls-2{fill:#627b8b;}.cls-3{fill:#f3c8a2;}.cls-4{fill:#141018;}</style></defs><title>On Linux</title><g id="Layer_2" data-name="Layer 2"><g id="_3rd" data-name="3rd"><polyline class="cls-1" points="223.364 133.756 248.799 133.756 262.558 119.997 280.103 119.997"/><polyline class="cls-1" points="209.669 93.457 209.669 59.673 226.041 43.301 226.041 3.06"/><polyline class="cls-1" points="144.712 114.021 106.364 114.021 89.395 97.052 30.06 97.052"/><polyline class="cls-1" points="118.103 155.256 76.234 155.256 63.848 167.642 3.06 167.642"/><polyline class="cls-1" points="168.68 262.495 126.566 304.609 21.843 304.609"/><polyline class="cls-1" points="226.041 275.017 251.734 275.017 260.636 283.919 306.321 283.919"/><polyline class="cls-1" points="251.734 200.277 280.103 200.277 300.06 220.234 336.843 220.234"/><circle class="cls-2" cx="306.321" cy="283.919" r="3.06"/><circle class="cls-2" cx="336.843" cy="220.234" r="3.06"/><circle class="cls-2" cx="226.041" cy="3.06" r="3.06"/><circle class="cls-2" cx="30.06" cy="97.052" r="3.06"/><circle class="cls-2" cx="3.06" cy="167.642" r="3.06"/><path class="cls-3" d="M190.425,97.077a7.846,7.846,0,0,1,4.269,3.537,6.875,6.875,0,0,1-.11,5.628,25.262,25.262,0,0,1-1.719,3.625,5.667,5.667,0,0,1-3.03,2.5c-.662.194-1.346.249-2,.5a16.913,16.913,0,0,0-1.728.881c-1.3.678-2.636,1.283-3.9,2.027-2.829,1.666-5.22,3.978-7.944,5.808a27.638,27.638,0,0,1-7.788,3.623c-3.776,1.082-8.191,1.229-11.276-1.2-2.392-1.885-3.5-4.915-4.651-7.735a23.836,23.836,0,0,0-3.344-6.14,8.989,8.989,0,0,1-1.594-2.272,8.2,8.2,0,0,1,2.4-8.894c1.482-1.334,3.248-2.31,4.83-3.524,1.9-1.456,3.551-3.269,5.679-4.363a15.278,15.278,0,0,1,6.569-1.514c2.17-.064,4.47.049,6.328,1.3a13.312,13.312,0,0,0,3.42,1.4c2.537.825,5.122,1.4,7.642,2.278,1.3.453,2.586.93,3.89,1.365C187.7,96.342,189.137,96.578,190.425,97.077Z"/><path class="cls-3" d="M272.732,237.367c-2.486-2.69-6.1-3.819-9.059-6.136a13.71,13.71,0,0,1-5.254-8.391c-.74-3.933.044-8.177-1.917-11.838a4.19,4.19,0,0,0-4.156-2.034c-6.763.277-10.346,7.351-16.644,7.921a9.252,9.252,0,0,1-5.529-1.485c-3.273-1.98-5.747-5.063-8.764-7.38-1.708-1.312-3.907-2.256-6-1.736a6.1,6.1,0,0,0-3.447,2.564c-5.126,7.506-2.069,19.766-1.667,28.152.4,8.229-1.782,16.5-.187,24.684a16.555,16.555,0,0,0,4.272,8.672c5.231,5.187,11.1,2.45,16.544-.684,12.845-7.389,25.7-15.086,39.439-20.712a7.138,7.138,0,0,0,4.675-5.167A7.626,7.626,0,0,0,272.732,237.367Z"/><path class="cls-3" d="M106.544,200.215a7.353,7.353,0,0,0-6.694,3.749c-2.567,4.282-.482,10.124-3.667,14.026-3.145,3.854-9.18,4.439-13.768,4.763-2.091.148-4.469.432-5.684,2.139-1.731,2.432.091,5.681,1.325,8.4a15.013,15.013,0,0,1,.952,10.725c-.8,2.441-2.375,4.558-3.288,6.959s-1,5.44.86,7.213a8.7,8.7,0,0,0,3.9,1.776l35.132,9.384c5.576,1.489,10.862,3.318,16.632,3.438,10.642.223,19.667-6.794,16.916-18.24-1.67-6.946-6.454-12.864-10.1-18.857-7.84-9.8-11.464-22.5-21.374-30.785C114.875,202.558,110.489,200.225,106.544,200.215Z"/><path class="cls-4" d="M275.17,238.406a17.434,17.434,0,0,0-4.145-3.277c-.269-.175-1-.6-2.2-1.265s-2.162-1.25-2.879-1.742a20.415,20.415,0,0,1-2.809-2.542,15.568,15.568,0,0,1-2.743-3.813,30.578,30.578,0,0,1-1.94-5.417,32.589,32.589,0,0,1-1.07-7.56q-1.873,1.6-2.073,6.354a21.405,21.405,0,0,0,2.008,9.7,11.03,11.03,0,0,0,6.621,6.422,32.709,32.709,0,0,1,6.89,3.143,7.677,7.677,0,0,1,3.346,3.812q.735,2.147-2.476,4.616t-10.3,4.889a87.96,87.96,0,0,0-13.848,5.683,97.409,97.409,0,0,0-11.973,8.9,19.354,19.354,0,0,1-11.374,4.752,11.006,11.006,0,0,1-9.764-4.413q-3.747-4.749-2.41-13.446,2.542-16.722-.13-26.087-2.141-7.359-.936-12.978t3.746-6.552q2.534-.941,5.484,4.011c.174.445.578,1.315,1.2,2.609a17.532,17.532,0,0,0,1.54,2.742,25.179,25.179,0,0,0,1.806,2.075,6.685,6.685,0,0,0,3.012,1.809,18.542,18.542,0,0,0,4.214.667,15.573,15.573,0,0,0,8.161-1.873,16.423,16.423,0,0,0,5.418-4.482q1.8-2.476,3.611-4.75t3.145-2.544q1.47-.263,2.676-2.943a23.423,23.423,0,0,0,1.605-7.423,46.839,46.839,0,0,0-.667-11.3,115.865,115.865,0,0,0-7.962-25.554Q242,146.7,234.639,138.81q-13.244-14.046-17.793-29.164-4.678-15.919-4.01-28.63.67-9.1-3.945-19.734T196.649,45.027a35.106,35.106,0,0,0-11.9-5.551,49.922,49.922,0,0,0-14.183-1.807q-8.694,0-13.912,2.81-10.7,5.754-14.181,13.981t-3.212,20.267q.537,26.49,2.141,41.472-1.873,6.959-16.589,26.087a32.875,32.875,0,0,0-5.219,7.225,75.309,75.309,0,0,0-4.013,8.161q-1.474,3.611-3.947,10.434t-3.546,9.632a34.777,34.777,0,0,1-2.942,5.622,37.933,37.933,0,0,0-3.212,6.284,21.017,21.017,0,0,0-1.337,6.957,22.391,22.391,0,0,0,.268,5.083q.534,3.216,2.006,2.009,6.022-4.55,15.119,5.353,6.422,6.956,22.609,32.376,1.338,2.274,2.675,4.887a37.378,37.378,0,0,1,2.543,6.953,24.353,24.353,0,0,1,1,7.828,9.894,9.894,0,0,1-3.077,6.421q-2.877,2.941-8.629,3.744a22.185,22.185,0,0,1-7.426-.535q-4.347-.937-11.036-3.076t-9.9-2.944q-4.68-1.072-13.311-2.742T82.13,259.482q-4.548-1.2-4.948-3.478-.4-1.875,1.873-6.419t2.274-6.556a10.9,10.9,0,0,0-.135-2.944,11.475,11.475,0,0,0-.6-2.275q-.335-.8-1.138-2.409a20.644,20.644,0,0,1-1.07-2.407q-2.408-5.62-.669-7.628,1.2-1.74,5.752-1.336,6.823.669,11.1-2.009,7.089-4.414,4.281-14.182,0,4.548-1.606,6.823a18.5,18.5,0,0,1-5.619,4.684q-2.272,1.338-8.026,1.607t-7.626,1.873a4.811,4.811,0,0,0-1.4,3.613,16.9,16.9,0,0,0,.6,4.884q.668,2.475,1.337,5.685a20.777,20.777,0,0,1,.536,5.353,39.875,39.875,0,0,1-2.41,7.288q-2.273,5.822-.936,8.9a6.554,6.554,0,0,0,2.274,2.61,14.7,14.7,0,0,0,4.481,1.943q2.876.8,5.285,1.269t6.688,1.2q4.281.733,6.823,1.27a137.877,137.877,0,0,1,19.532,5.754q10.971,4.014,14.849,4.145a14.828,14.828,0,0,0,7.158-1.539,25.708,25.708,0,0,0,5.819-3.812,24.257,24.257,0,0,1,7.156-4.014,30.737,30.737,0,0,1,10.638-2.007q2.674-.132,7.758-.334t7.626-.2q11.5,0,17.39.132a15.487,15.487,0,0,1,6.289,1.273,5.947,5.947,0,0,1,2.943,2.606,17.142,17.142,0,0,0,2.211,3.413,11.5,11.5,0,0,0,3.942,3.143,23.636,23.636,0,0,0,11.908,1.94q6.822-.466,9.1-2.608a130.106,130.106,0,0,1,10.1-8.562,70.882,70.882,0,0,1,11.44-7.492q1.068-.539,3.611-1.741T263,254.861q1.738-.87,4.212-2.208a34.54,34.54,0,0,0,4.016-2.476,38.878,38.878,0,0,0,3.142-2.609,7.056,7.056,0,0,0,2.076-2.943,7.707,7.707,0,0,0,.333-3.01A5.772,5.772,0,0,0,275.17,238.406Zm-71.705-129.3c.266-.178.446-.245.534-.2a2.718,2.718,0,0,1,.534.536c.27.312.512.6.738.87s.533.624.933,1.069a5.557,5.557,0,0,0,1.269,1.07,5.055,5.055,0,0,0,1.942.736,3.974,3.974,0,0,1,1.741.668,2.673,2.673,0,0,1,.868,1.539,3.7,3.7,0,0,1-.463,2.675,1.932,1.932,0,0,1-1.944,1.071q-2.407-.535-5.216-4.214T203.465,109.105Zm-16.59-51.973a4.277,4.277,0,0,0,.8-1.4,3.049,3.049,0,0,0,.067-1.673,2.931,2.931,0,0,1,.133-1.739,1.678,1.678,0,0,1,1.541-1q1.2,0,3.211,2.007c.266.179.69.447,1.267.8a5.123,5.123,0,0,1,1.2.935,1.161,1.161,0,0,1,.333.669,1.674,1.674,0,0,1-1.2.937,7.313,7.313,0,0,1-2.006.268,2.7,2.7,0,0,0-1.2.133,6.7,6.7,0,0,0-2.008,1.2q-.936.8-1.471,1.2a.816.816,0,0,1-1.071,0q-.534-.8-.4-1.137A6.816,6.816,0,0,1,186.875,57.132Zm-64.75,100.137a13.159,13.159,0,0,0,1.336-1.738,7.934,7.934,0,0,0,.736-1.806,10.927,10.927,0,0,1,.6-1.674.652.652,0,0,1,.8-.4c.177-.044.31.044.4.267s.133.335.133.335v.4a2.937,2.937,0,0,1-.067.536,2.366,2.366,0,0,1-.2.6,4.054,4.054,0,0,0-.267.8c-.089.356-.177.669-.268.936a6.712,6.712,0,0,1-1.672,2.409q-1.137,1.069-1.673.936C121.455,158.7,121.5,158.16,122.125,157.269Zm87.49,82.544a97.876,97.876,0,0,1-1.807,12.041q-1.539,7.756-1.943,10.3-2.81-.137-3.21-2.075a9.209,9.209,0,0,1,.8-5.017q2.943-8.967,3.076-12.308.272-6.154-1.334-6.957-1.477-1.07-4.551,4.012-5.892,9.635-23.68,11.641-16.051,2.14-22.207-4.818a2.565,2.565,0,0,0-2.675-.333,3.8,3.8,0,0,0-1.739,1.267c-.088.18,0,.446.268.8s.691.891,1.271,1.6a11.721,11.721,0,0,1,1.4,2.144q5.219,9.094-.936,12.306a36.308,36.308,0,0,0-.936-9.429,24.427,24.427,0,0,0-3.746-7.226,61.4,61.4,0,0,1-3.878-5.952,8.384,8.384,0,0,0,7.96-8.829,7.362,7.362,0,0,0-2.341-5.085q-1.2-1.2-12.442-10.235t-13.913-12.107q-.537-.535-3.211-2.676a10.865,10.865,0,0,1-3.346-3.746q-6.154-13.506-1.338-22.205l.535-.669q.668-.132.133,2.409a26.614,26.614,0,0,0-.535,7.492q.534,8.43,4.816,12.574,2.811,2.814,3.88-.4.8-1.073.735-7.9t.2-9.23q1.072-7.625,6.355-18.861t8.362-12.042a11.386,11.386,0,0,1-1.538-8.428,23.407,23.407,0,0,1,2.809-7.76q1.938-3.21,3.946-7.424a17.9,17.9,0,0,0,2.007-7.56,4.7,4.7,0,0,1,.134-1.337q.4-1.2,3.345,2.942,5.619,8.3,8.429,9.768a6.853,6.853,0,0,0,6.554-.135,55.334,55.334,0,0,0,8.9-5.752,60.049,60.049,0,0,1,9.029-5.885,9.474,9.474,0,0,0,1.274-.6c.577-.31,1.023-.535,1.334-.67s.712-.333,1.2-.6.866-.49,1.134-.669a9.438,9.438,0,0,0,.8-.6,1.821,1.821,0,0,0,.536-.669,1.645,1.645,0,0,0,.134-.6,1.764,1.764,0,0,0-1.138-1.472,3.624,3.624,0,0,0-2.342.335,31.342,31.342,0,0,0-3.277,1.606q-1.8,1-4.012,2.274t-4.481,2.342a38.56,38.56,0,0,1-4.817,1.874,19.952,19.952,0,0,1-4.815.936q-5.619.135-8.962-2.942a10.035,10.035,0,0,1-2.275-2.543q-.135-.534,1.2-.267,7.227.936,10.57.267a41.254,41.254,0,0,0,9.365-3.077q1.206-.534,6.089-2.609a79.292,79.292,0,0,1,7.558-2.875,3.644,3.644,0,0,0,2.209-1.271,1.914,1.914,0,0,0,.4-1.607,1.85,1.85,0,0,0-.868-1.135q-1.475-.8-2.674,1.07a6.732,6.732,0,0,1-2.812,2.341,25.886,25.886,0,0,1-3.946,1.739q-1.806.6-4.616,1.4t-3.077.937a40.52,40.52,0,0,1-13.646,2.006,14.5,14.5,0,0,1-4.748-.87,5.235,5.235,0,0,1-2.475-1.739,20.416,20.416,0,0,0-2.141-2.541,14.726,14.726,0,0,0-3.345-2.61,1.976,1.976,0,0,1-1-2.407,7.605,7.605,0,0,1,2.073-3.613q.133-.135,2.742-1.673a11.167,11.167,0,0,0,3.681-3.144,14.672,14.672,0,0,1,4.146-3.881,20.157,20.157,0,0,0,.2-2.942,11.469,11.469,0,0,0-1.271-5.217q-1.336-2.811-3.612-2.809-3.212-.133-4.549,1.873a8.036,8.036,0,0,0-1.2,4.949,9.774,9.774,0,0,0,1.27,4.481q1.138,1.941,2.075,1.941,1.47-.135.936,1.069a3.626,3.626,0,0,1-2.141,1.874q-.939.265-2.074-1.806a17.826,17.826,0,0,1-1.739-5.017,19.052,19.052,0,0,1-.468-4.951,20.234,20.234,0,0,1,2.207-7.96q1.941-3.813,5.552-3.681,3.746.136,6.021,4.55t2.141,12.041q.4.938,2.075.669a19.761,19.761,0,0,1,4.413-.067,6.079,6.079,0,0,1,3.946,1.4,5.731,5.731,0,0,0,.135-2.007q-2.409-16.856,11.907-17.927a18.846,18.846,0,0,1,3.608,1,12.173,12.173,0,0,1,3.144,2.007,10.594,10.594,0,0,1,2.809,4.08,29.813,29.813,0,0,1,1.807,6.69v4.949q0,4.281-1.741,4.817-2.806.934-4.009-.068t.266-3.545q1.336-3.345-.536-7.761t-6.822-4.012a5.239,5.239,0,0,0-4.817,3.612,13.247,13.247,0,0,0-1.069,6.823q.4,3.345,1.472,3.478a28.812,28.812,0,0,1,4.75,2.141,26.376,26.376,0,0,0,5.954,2.408q5.217,1.068,5.953,3.344t-.6,6.622a13.866,13.866,0,0,0,1.208,12.509,36.937,36.937,0,0,0,3.143,4.416,31.907,31.907,0,0,1,3.947,7.491,86.265,86.265,0,0,1,4.144,13.78q.132.133,1,.936a13.541,13.541,0,0,1,1.74,2.006q.873,1.206,2.075,3.278a37.164,37.164,0,0,1,2.61,6.089,88.467,88.467,0,0,1,2.607,9.23,64.243,64.243,0,0,1,1.54,14.317q.068,8.159,1.071,11.17t5.151,2.476q5.217-.267,6.687-5.618,4.416-15.52-7.223-37.192-4.416-8.429-7.626-11.1,4.682,2.674,9.634,10.034a39.694,39.694,0,0,1,6.286,13.779q.13.671.735,3.545c.4,1.918.625,3.034.667,3.345s.224,1.227.534,2.743a19.271,19.271,0,0,1,.468,2.943c0,.448.043,1.317.135,2.609a12.428,12.428,0,0,1-.068,3.01q-.2,1.072-.4,2.876a21.924,21.924,0,0,1-.669,3.48c-.308,1.114-.643,2.343-1,3.678q7.356,3.212,7.357,5.619a16.148,16.148,0,0,0-8.029-3,16.616,16.616,0,0,0-9.7,1.4,7.562,7.562,0,0,0-4.619,7.088q-4.815,0-6.821,2.41-2.943,3.477-3.076,9.431a71.477,71.477,0,0,0,1,12.974A44.988,44.988,0,0,1,209.615,239.813ZM153.562,84.756a1.248,1.248,0,0,1-.668-.8c0-.8.4-1.115,1.2-.936q.8.267,1.538,2.006a7.017,7.017,0,0,1,.335,4.014.353.353,0,0,1-.4.4q-1.473,0-1.07-2.675Q154.9,84.756,153.562,84.756Zm34.65,2.142-.266.4c-.712.446-1.066.535-1.066.269q-.54-3.615-2.409-4.149l-.536-.267q-.937-.8.933-.937.4-.135,1.2.4a5.272,5.272,0,0,1,2.14,4.284Z"/><path class="cls-4" d="M157.04,94.655q0,.8.67.67.534,0,1.136-1.271a2.378,2.378,0,0,1,2.074-1.4v0h-1.339Q157.04,93.05,157.04,94.655Z"/><path class="cls-4" d="M168.68,93.051a2.2,2.2,0,0,1,2.342.6c.668.668,1.182.959,1.539.868a.792.792,0,0,0,.4-1.2Q171.891,91.579,168.68,93.051Z"/><g id="vmware_logo_gray" data-name="vmware logo gray"><path class="cls-4" d="M72.412,293.029l-3.772-10.5a1.72,1.72,0,0,1-.12-.5.914.914,0,0,1,.937-.889.973.973,0,0,1,.937.769l3.124,9.048,3.147-9.074a.949.949,0,0,1,.912-.743h.1a.987.987,0,0,1,.963.743l3.122,9.074,3.175-9.1a.911.911,0,0,1,1.8.146,1.74,1.74,0,0,1-.12.507l-3.8,10.525a1.1,1.1,0,0,1-1.009.837h-.074a1.041,1.041,0,0,1-1.012-.837l-3.095-8.925L74.5,293.032a1.033,1.033,0,0,1-1.009.837h-.048a1.1,1.1,0,0,1-1.032-.837"/><path class="cls-4" d="M99.905,282.049a.926.926,0,1,1,1.851,0v2.132a5.066,5.066,0,0,1,4.285-3.047.894.894,0,0,1,.917.938.909.909,0,0,1-.819.94c-2.408.289-4.383,2.092-4.383,5.683v4.22a.926.926,0,1,1-1.851,0V282.049"/><path class="cls-4" d="M112.906,293.966a6.092,6.092,0,0,1-6.085-6.408v-.049c0-3.546,2.476-6.406,5.85-6.406,3.6,0,5.658,2.975,5.658,6.242a.852.852,0,0,1-.849.857h-8.819a4.269,4.269,0,0,0,4.291,4.168,4.945,4.945,0,0,0,3.514-1.43.784.784,0,0,1,1.321.576.775.775,0,0,1-.287.593,6.168,6.168,0,0,1-4.6,1.857m3.608-7.125c-.189-2.238-1.464-4.19-3.892-4.19-2.124,0-3.729,1.785-3.961,4.19h7.853Z"/><path class="cls-4" d="M86.766,290.111v-.048c0-2.614,2.158-4.007,5.3-4.007a13.328,13.328,0,0,1,3.818.527v-.433c0-2.233-1.373-3.385-3.7-3.385a6.288,6.288,0,0,0-2.889.568.926.926,0,0,1-.336.071.823.823,0,0,1-.819-.791.769.769,0,0,1,.507-.771,8.236,8.236,0,0,1,3.726-.7,5.435,5.435,0,0,1,4.007,1.367,4.9,4.9,0,0,1,1.273,3.623v6.848a.878.878,0,0,1-.892.911.86.86,0,0,1-.883-.865v-1.184a5.436,5.436,0,0,1-4.485,2.138c-2.3,0-4.635-1.321-4.635-3.864m9.143-.96v-1.2a12.94,12.94,0,0,0-3.648-.53c-2.325,0-3.623,1.012-3.623,2.568v.049c0,1.559,1.439,2.47,3.118,2.47,2.279,0,4.15-1.393,4.15-3.359"/><path class="cls-4" d="M38.791,281.911a1.746,1.746,0,0,0-2.347-.874,1.718,1.718,0,0,0-.86,2.35l3.938,8.559c.619,1.341,1.273,2.046,2.5,2.046,1.307,0,1.88-.768,2.5-2.046,0,0,3.437-7.481,3.468-7.556a.5.5,0,0,1,.5-.321.549.549,0,0,1,.545.554v7.317a1.851,1.851,0,1,0,3.68,0v-5.985a1.84,1.84,0,0,1,1.955-1.9,1.793,1.793,0,0,1,1.877,1.9v5.985a1.839,1.839,0,0,0,1.829,2.052,1.857,1.857,0,0,0,1.854-2.052v-5.985a1.838,1.838,0,0,1,1.952-1.9,1.793,1.793,0,0,1,1.877,1.9v5.985a1.837,1.837,0,0,0,1.829,2.052,1.856,1.856,0,0,0,1.854-2.052v-6.813a4.269,4.269,0,0,0-4.434-4.259,5.682,5.682,0,0,0-3.935,1.677,4.351,4.351,0,0,0-3.8-1.674,6.24,6.24,0,0,0-3.717,1.674,4.456,4.456,0,0,0-3.314-1.674,4.066,4.066,0,0,0-4,2.72l-2.516,5.927-3.228-7.607"/><path class="cls-4" d="M118.478,282.653v-.011a1.535,1.535,0,1,1,3.069-.009v.009a1.535,1.535,0,1,1-3.069.011m2.774-.011h0a1.243,1.243,0,1,0-2.485,0v.009a1.243,1.243,0,1,0,2.485-.012"/><path class="cls-4" d="M119.426,282.037a.165.165,0,0,1,.164-.166h.513a.567.567,0,0,1,.433.155.452.452,0,0,1,.132.338v.006a.458.458,0,0,1-.3.453l.227.275a.19.19,0,0,1,.051.123.153.153,0,0,1-.154.152.207.207,0,0,1-.161-.083l-.318-.4h-.261v.324a.164.164,0,0,1-.327,0Zm.66.556c.16,0,.249-.08.249-.209v-.006c0-.137-.095-.212-.252-.212h-.327v.427Z"/></g><path class="cls-4" d="M321.526,111.918a24.877,24.877,0,0,1-.42,4.565c-.948.247-2.011.485-3.208.7a21.288,21.288,0,0,1-2.383,5.759c.712,1.03,1.313,1.972,1.817,2.836q-.342.5-.713.986a25.016,25.016,0,0,1-4.754,4.756c-.325.247-.653.485-.987.714-.863-.5-1.805-1.107-2.835-1.819a21.4,21.4,0,0,1-5.758,2.383h0c-.22,1.2-.458,2.262-.7,3.207a24.949,24.949,0,0,1-9.128,0c-.246-.944-.482-2.006-.7-3.2a21.356,21.356,0,0,1-5.765-2.382c-1.027.709-1.969,1.308-2.83,1.813a25.011,25.011,0,0,1-6.454-6.456c.5-.858,1.1-1.8,1.807-2.822a21.4,21.4,0,0,1-2.392-5.775c-1.19-.221-2.249-.457-3.189-.7a25,25,0,0,1,0-9.127c.94-.246,2-.482,3.185-.7a21.3,21.3,0,0,1,2.371-5.752c.006-.011.013-.021.019-.033-.7-1.022-1.3-1.956-1.8-2.814a24.962,24.962,0,0,1,6.454-6.454c.857.5,1.792,1.1,2.814,1.8.01-.006.021-.014.033-.02a21.32,21.32,0,0,1,5.752-2.371c.218-1.188.454-2.245.7-3.185a25.008,25.008,0,0,1,9.128,0c.246.94.482,2,.7,3.189a21.382,21.382,0,0,1,5.773,2.392c1.025-.706,1.965-1.3,2.824-1.807a24.962,24.962,0,0,1,6.454,6.454c-.5.861-1.1,1.8-1.811,2.83a21.289,21.289,0,0,1,2.381,5.767c1.195.221,2.26.457,3.2.7A24.828,24.828,0,0,1,321.526,111.918Z"/><path id="path26" class="cls-2" d="M315.97,117.73a7.383,7.383,0,0,0-6.971.717s-.823.5-1.069.657a6.314,6.314,0,0,1-3,1.285c-.91,0-1.806-.244-2.185-2-.59-2.746-2.032-9.5-2.661-12.839-.37-1.964-.573-3.023-.783-3.743-.371-1.264-1.05-1.951-2.013-2.061a2.38,2.38,0,0,0-.274-.021,2.61,2.61,0,0,0-.289.023c-.954.114-1.629.8-2,2.059-.211.72-.413,1.779-.783,3.743-.629,3.343-2.071,10.093-2.662,12.839-.379,1.761-1.274,2-2.185,2a6.311,6.311,0,0,1-3-1.285c-.246-.155-1.071-.657-1.071-.657a7.379,7.379,0,0,0-6.969-.717c-.531.212-1.077.523-1.575.763a20.373,20.373,0,0,0,1.219,3,11.512,11.512,0,0,1,1.761-.677,4.167,4.167,0,0,1,2.536.018,10.822,10.822,0,0,1,2.252,1.205,9.038,9.038,0,0,0,4.845,1.817c2.9,0,4.929-1.729,5.578-4.744.5-2.338,1.62-7.555,2.336-11.154,0,0,1.837,8.816,2.339,11.154.649,3.015,2.683,4.744,5.579,4.744a9.042,9.042,0,0,0,4.846-1.817,10.8,10.8,0,0,1,2.252-1.205,4.167,4.167,0,0,1,2.536-.018,11.032,11.032,0,0,1,1.7.705,21.656,21.656,0,0,0,1.259-3.106c-.5-.24-1.021-.477-1.552-.689"/><path class="cls-2" d="M33.942,304.609a12.206,12.206,0,0,1-.208,2.253c-.468.122-.992.24-1.583.348a10.528,10.528,0,0,1-1.176,2.843c.351.508.647.973.9,1.4-.112.165-.23.327-.352.487a12,12,0,0,1-1.094,1.253,12.141,12.141,0,0,1-1.253,1.095q-.24.183-.486.352c-.426-.249-.891-.546-1.4-.9a10.554,10.554,0,0,1-2.842,1.176h0c-.109.592-.226,1.117-.347,1.584a12.364,12.364,0,0,1-4.506,0c-.122-.466-.238-.991-.348-1.581a10.541,10.541,0,0,1-2.846-1.176c-.506.351-.971.646-1.4.895a12.335,12.335,0,0,1-3.186-3.187c.248-.423.543-.887.892-1.393a10.567,10.567,0,0,1-1.181-2.85c-.587-.109-1.11-.226-1.574-.347a12.359,12.359,0,0,1,0-4.5c.464-.121.985-.237,1.572-.346a10.489,10.489,0,0,1,1.171-2.839l.009-.016c-.347-.5-.642-.966-.889-1.39A12.327,12.327,0,0,1,15,294.581c.423.248.884.541,1.389.889l.016-.01a10.518,10.518,0,0,1,2.839-1.17c.108-.586.224-1.108.346-1.572a12.306,12.306,0,0,1,4.506,0c.121.464.237.987.346,1.574a10.554,10.554,0,0,1,2.85,1.181c.5-.349.969-.644,1.394-.892a12.344,12.344,0,0,1,3.185,3.185c-.248.425-.544.89-.894,1.4a10.534,10.534,0,0,1,1.176,2.847c.59.109,1.115.225,1.581.347A12.2,12.2,0,0,1,33.942,304.609Z"/></g></g></svg>