<svg xmlns="http://www.w3.org/2000/svg" viewBox="0 0 346.351 316.022"><defs><style>.cls-1,.cls-4,.cls-5{fill:none;stroke-linecap:round;stroke-linejoin:round;}.cls-1{stroke:#627b8b;stroke-width:3px;}.cls-2{fill:#627b8b;}.cls-3{fill:#423841;}.cls-4,.cls-5{stroke:#141018;}.cls-4{stroke-width:8px;}.cls-5{stroke-width:5px;}.cls-6{fill:#bb7159;}</style></defs><title>Upgrade Your Notion</title><g id="Layer_2" data-name="Layer 2"><g id="_6th" data-name="6th"><polyline class="cls-1" points="244.171 91.13 262.954 91.13 270.388 83.696 296.084 83.696"/><polyline class="cls-1" points="231.388 126.609 244.171 126.609 254.783 137.22 303.128 137.22"/><polyline class="cls-1" points="231.388 211.652 266.084 211.652 278.997 224.565 316.736 224.565"/><path class="cls-1" d="M117.388,214.783H86.345L74.736,203.174H45.388"/><polyline class="cls-1" points="148.432 218.109 169.302 218.109 184.562 233.37 233.736 233.37"/><polyline class="cls-1" points="131.997 131.914 110.541 131.914 101.878 140.577 68.867 140.577"/><polyline class="cls-1" points="126.78 93.435 94.432 93.435 73.715 72.717 45.388 72.717"/><polyline class="cls-1" points="210.519 91.13 195.388 91.13 171.505 67.247 122.084 67.247"/><circle class="cls-2" cx="233.736" cy="233.37" r="3.06"/><circle class="cls-2" cx="303.128" cy="137.22" r="3.06"/><circle class="cls-2" cx="296.084" cy="83.696" r="3.06"/><circle class="cls-2" cx="122.084" cy="67.247" r="3.06"/><circle class="cls-2" cx="68.867" cy="140.577" r="3.06"/><path class="cls-3" d="M251.568,88.915h0a8.081,8.081,0,0,1-8.08,8.08l-6.53,2.35V215.693L223.2,219.64a24.914,24.914,0,0,1-28.171-10.786c-.047-.077-.093-.154-.139-.232l-51.578-86.467v87.407l16.7,2.413h0a9.46,9.46,0,0,1-9.46,9.46h-42.72a9.46,9.46,0,0,1,9.46-9.46l6.19-2.413V99.214L107.828,97h0a8.079,8.079,0,0,1,8.08-8.08h44.1l58.17,100.18V99.345L202.528,97h0a8.08,8.08,0,0,1,8.08-8.08Z"/><rect class="cls-4" x="42.085" y="14.032" width="275.651" height="275.651" rx="36.537"/><path class="cls-5" d="M85.106,14.032V9.446A6.946,6.946,0,0,1,92.052,2.5H129.03a6.945,6.945,0,0,1,6.945,6.946v4.586"/><path class="cls-5" d="M110.541,289.683v5.339a7.152,7.152,0,0,0,7.152,7.152h50.152A7.152,7.152,0,0,0,175,295.022v-5.339"/><path class="cls-5" d="M246.91,289.683V306.25a7.272,7.272,0,0,0,7.272,7.272h0a7.468,7.468,0,0,0,7.467-7.468V289.683"/><path class="cls-5" d="M317.736,205.783h4.109a7.043,7.043,0,0,1,7.043,7.043V227.4a7.141,7.141,0,0,1-7.141,7.141h-4.011"/><path class="cls-5" d="M316.736,66.319a27.525,27.525,0,0,1,5.049.465c.272,1.04.533,2.212.777,3.528a23.667,23.667,0,0,1,6.386,2.646c1.134-.781,2.174-1.443,3.124-2a27.642,27.642,0,0,1,7.14,7.139c-.556.953-1.22,2-2,3.131a23.527,23.527,0,0,1,2.634,6.38c1.323.244,2.5.505,3.545.779a27.691,27.691,0,0,1,0,10.1c-1.049.273-2.225.537-3.549.779a23.6,23.6,0,0,1-2.636,6.371c.788,1.14,1.452,2.182,2.01,3.137q-.38.553-.79,1.091a26.957,26.957,0,0,1-2.451,2.807,27.253,27.253,0,0,1-2.808,2.454q-.537.411-1.091.789c-.955-.558-2-1.224-3.136-2.012a23.636,23.636,0,0,1-6.37,2.636h0c-.244,1.327-.507,2.5-.779,3.549a27.438,27.438,0,0,1-5.049.465"/><path class="cls-5" d="M43.152,242.478a41.215,41.215,0,0,1-7.57-.7c-.407-1.566-.8-3.328-1.168-5.311a35.385,35.385,0,0,1-9.561-3.952c-1.7,1.178-3.265,2.171-4.693,3.007a41.465,41.465,0,0,1-10.7-10.707c.833-1.422,1.826-2.981,3-4.68a35.561,35.561,0,0,1-3.968-9.578c-1.973-.366-3.729-.757-5.288-1.164a41.44,41.44,0,0,1,0-15.137c1.559-.407,3.309-.8,5.282-1.164a35.332,35.332,0,0,1,3.933-9.54c.009-.019.022-.035.031-.054-1.167-1.7-2.157-3.245-2.987-4.668a41.367,41.367,0,0,1,10.7-10.7c1.422.833,2.971,1.82,4.667,2.987.016-.009.035-.022.054-.031a35.332,35.332,0,0,1,9.54-3.933c.363-1.97.754-3.723,1.161-5.282a41.215,41.215,0,0,1,7.57-.7"/><path class="cls-6" d="M263.885,26.783,230.416,46.111a1.807,1.807,0,0,0,.9,3.371h66.939a1.806,1.806,0,0,0,.9-3.371L265.692,26.783A1.806,1.806,0,0,0,263.885,26.783Z"/><rect class="cls-6" x="246.087" y="53.488" width="37.404" height="9.72" rx="1.861"/><rect class="cls-6" x="246.087" y="67.213" width="37.404" height="9.72" rx="1.877"/></g></g></svg>